<?xml version="1.0" standalone="no"?>
<!DOCTYPE svg PUBLIC "-//W3C//DTD SVG 20010904//EN"
 "http://www.w3.org/TR/2001/REC-SVG-20010904/DTD/svg10.dtd">
<svg version="1.0" xmlns="http://www.w3.org/2000/svg"
 width="146.000000pt" height="146.000000pt" viewBox="0 0 146.000000 146.000000"
 preserveAspectRatio="xMidYMid meet">
<metadata>
Created by potrace 1.14, written by Peter Selinger 2001-2017
</metadata>
<g transform="translate(0.000000,146.000000) scale(0.100000,-0.100000)"
fill="#000000" stroke="none">
<path d="M675 1080 c-3 -5 -1 -10 4 -10 6 0 11 5 11 10 0 6 -2 10 -4 10 -3 0
-8 -4 -11 -10z"/>
<path d="M673 1053 c-7 -3 -12 -17 -12 -31 1 -21 2 -23 6 -7 3 11 10 23 16 27
14 9 6 17 -10 11z"/>
<path d="M690 1006 c0 -2 7 -7 16 -10 8 -3 12 -2 9 4 -6 10 -25 14 -25 6z"/>
<path d="M656 974 c-8 -20 -8 -24 2 -24 4 0 8 9 9 20 2 24 -3 26 -11 4z"/>
<path d="M580 938 c-10 -21 -10 -21 3 -6 8 10 18 14 22 10 5 -4 5 -1 1 6 -10
17 -14 15 -26 -10z"/>
<path d="M795 933 c-3 -9 -3 -18 0 -21 3 -3 5 0 5 6 0 7 10 12 22 12 12 0 18
3 14 7 -13 13 -35 11 -41 -4z"/>
<path d="M652 896 c-2 -41 -4 -47 -19 -41 -15 5 -16 4 -5 -6 20 -21 34 3 29
52 l-4 44 -1 -49z"/>
<path d="M903 933 c-7 -2 -13 -10 -13 -16 0 -8 4 -7 12 1 19 19 55 14 61 -8 3
-11 11 -20 19 -19 10 0 10 2 1 6 -7 2 -13 13 -13 24 0 14 -7 19 -27 18 -16 0
-34 -3 -40 -6z"/>
<path d="M611 915 c0 -11 4 -27 9 -35 9 -13 10 -13 9 0 0 8 -4 24 -9 35 l-9
20 0 -20z"/>
<path d="M571 894 c0 -11 3 -14 6 -6 3 7 2 16 -1 19 -3 4 -6 -2 -5 -13z"/>
<path d="M791 884 c0 -11 3 -14 6 -6 3 7 2 16 -1 19 -3 4 -6 -2 -5 -13z"/>
<path d="M864 885 c34 -18 36 -18 36 -4 0 5 -4 8 -9 4 -5 -3 -12 -1 -16 5 -3
5 -14 10 -23 10 -11 0 -6 -6 12 -15z"/>
<path d="M717 859 c7 -7 15 -10 18 -7 3 3 -2 9 -12 12 -14 6 -15 5 -6 -5z"/>
<path d="M760 860 c-12 -7 -10 -9 7 -7 12 0 19 5 17 9 -6 10 -6 10 -24 -2z"/>
<path d="M172 741 c-8 -5 -12 -17 -10 -27 3 -16 13 -19 65 -21 33 0 70 -6 82
-12 25 -14 41 -67 29 -100 -14 -40 -38 -50 -110 -51 -65 0 -68 -1 -68 -24 0
-29 16 -34 95 -29 67 4 97 20 125 66 38 61 15 153 -44 184 -35 18 -144 27
-164 14z"/>
<path d="M490 740 c-7 -4 -9 -16 -6 -27 6 -18 15 -20 104 -19 91 1 97 2 100
23 2 14 -3 23 -15 26 -27 8 -170 5 -183 -3z"/>
<path d="M750 740 c-12 -7 -9 -15 16 -47 20 -24 40 -38 54 -38 34 0 34 16 -1
58 -32 38 -44 43 -69 27z"/>
<path d="M898 675 c-46 -66 -53 -83 -54 -129 -3 -63 6 -81 35 -71 18 5 21 14
21 56 0 43 7 60 50 125 51 75 55 94 20 94 -13 0 -38 -26 -72 -75z"/>
<path d="M1140 725 c-5 -13 -23 -56 -40 -96 -16 -39 -30 -72 -30 -74 0 -1 12
-5 26 -8 24 -4 28 1 53 57 l28 61 20 -47 c42 -94 46 -88 -52 -88 -80 0 -86 -2
-94 -22 -5 -13 -7 -25 -4 -28 7 -8 254 -6 260 3 6 10 -95 249 -110 259 -23 15
-48 8 -57 -17z"/>
<path d="M484 625 c-14 -34 1 -41 92 -40 88 1 89 1 89 25 0 24 -2 25 -88 28
-71 2 -88 0 -93 -13z"/>
<path d="M487 523 c-12 -11 -8 -43 6 -44 6 -1 49 -2 95 -3 86 -1 110 8 98 39
-4 12 -25 15 -99 15 -52 0 -97 -3 -100 -7z"/>
</g>
</svg>
