<?xml version="1.0" encoding="UTF-8" standalone="no"?><!DOCTYPE svg PUBLIC "-//W3C//DTD SVG 1.1//EN" "http://www.w3.org/Graphics/SVG/1.1/DTD/svg11.dtd"><svg width="100%" height="100%" viewBox="0 0 9842 6455" version="1.1" xmlns="http://www.w3.org/2000/svg" xmlns:xlink="http://www.w3.org/1999/xlink" xml:space="preserve" xmlns:serif="http://www.serif.com/" style="fill-rule:evenodd;clip-rule:evenodd;stroke-linejoin:round;stroke-miterlimit:2;"><path d="M8242.7,3444.51c45.715,106.954 91.053,212.331 136.035,317.862c47.406,111.219 94.441,222.597 141.694,333.882c35.916,84.581 71.962,169.107 107.872,253.691c47.245,111.285 94.494,222.57 141.578,333.923c18.294,43.264 33.843,87.875 54.928,129.713c16.645,33.029 -11.373,97.44 -37.585,109.783c-17.303,8.148 -39.119,9.187 -58.917,9.199c-522.888,0.308 -1045.78,0.073 -1568.66,-0.098c-14.563,-0.005 -29.126,-0.312 -43.689,-0.496c-44.605,-0.566 -70.255,-29.946 -80.391,-66.506c-6.291,-22.694 2.948,-51.885 11.411,-75.984c14.14,-40.262 32.946,-78.912 50.388,-117.973c7.58,-16.977 15.448,-34.041 25.296,-49.741c19.02,-30.323 48.761,-42.686 83.267,-42.698c359.01,-0.122 718.021,-0.419 1077.03,0.849c50.329,0.177 52.07,0.138 31.988,-47.136c-74.385,-175.105 -147.357,-350.809 -221.165,-526.16c-50.413,-119.77 -101.263,-239.355 -152.231,-358.889c-2.411,-5.655 -7.883,-10.005 -11.93,-14.962c-3.092,5.34 -6.801,10.42 -9.184,16.06c-25.02,59.22 -49.703,118.583 -74.721,177.803c-80.371,190.247 -162.337,379.844 -240.159,571.128c-17.944,44.103 -47.737,58.326 -88.386,59.512c-61.751,1.804 -123.65,2.25 -185.354,-0.129c-20.501,-0.79 -42.734,-8.532 -60.43,-19.269c-35.336,-21.442 -43.535,-54.319 -31.452,-98.941c9.672,-35.721 27.513,-69.251 41.99,-103.644c33.206,-78.894 66.288,-157.844 99.975,-236.533c22.253,-51.98 46.118,-103.274 68.101,-155.365c32.507,-77.023 63.572,-154.655 96.028,-231.7c25.523,-60.588 52.696,-120.48 78.268,-181.048c27.415,-64.933 53.305,-130.512 80.907,-195.363c11.314,-26.585 24.51,-52.474 38.389,-77.838c19.014,-34.749 53.619,-39.726 88.019,-40.367c65.938,-1.228 131.969,-1.808 197.866,0.301c61.179,1.959 79.36,9.93 106.883,75.664c31.21,74.542 63.251,148.735 94.886,223.098c3.784,8.895 7.294,17.906 11.463,28.372Z" style="fill:#0b06c1;fill-rule:nonzero;"/><path d="M1504.17,3118.49c113.168,-0.104 224.307,-2.346 335.317,0.469c69.673,1.767 140.624,2.801 207.782,23.965c66.435,20.936 132.206,45.049 195.928,73.087c32.785,14.425 59.531,41.994 90.695,60.828c43.797,26.468 80.553,60.652 113.815,98.622c29.101,33.221 57.541,67.309 83.074,103.284c23.017,32.43 43.678,66.929 61.733,102.373c18.075,35.483 35.233,72.217 46.344,110.285c17.187,58.88 32.97,118.769 41.762,179.331c8.616,59.348 10.242,120.073 10.261,180.196c0.016,48.982 -3.566,98.515 -11.587,146.802c-8.803,52.995 -20.114,106.439 -38.373,156.771c-21.212,58.471 -48.709,114.426 -80.227,169.133c-57.881,100.468 -138.455,179.219 -225.246,251.57c-42.046,35.05 -93.785,61.546 -145.167,81.575c-69.721,27.176 -142.523,47.836 -215.532,64.661c-43.341,9.988 -89.612,9.646 -134.578,9.785c-216.653,0.668 -433.311,-0.253 -649.966,-0.104c-26.448,0.018 -50.934,0.65 -75.493,-15.21c-29.226,-18.872 -40.533,-46.259 -42.189,-76.192c-3.179,-57.468 -2.519,-115.264 -0.832,-172.846c1.098,-37.53 38.087,-83.952 82.324,-83.397c84.696,1.062 169.421,-0.406 254.134,-0.472c143.055,-0.111 286.134,1.545 429.152,-0.745c47.407,-0.759 95.946,-6.504 141.671,-18.631c67.01,-17.772 124.991,-54.156 175.895,-102.627c41.066,-39.103 75.308,-83.066 104.784,-130.751c13.204,-21.363 23.439,-45.541 30.031,-69.798c12.475,-45.904 22.615,-92.554 31.27,-139.348c5.771,-31.2 13.104,-63.868 9.49,-94.677c-7.219,-61.537 -5.282,-124.128 -24.444,-184.722c-9.818,-31.046 -24.621,-59.631 -34.524,-89.924c-16.201,-49.556 -46.805,-89.736 -79.894,-126.555c-30.474,-33.907 -66.136,-63.625 -105.286,-89.869c-44.268,-29.675 -92.677,-42.191 -141.899,-53.948c-34.734,-8.296 -71.108,-13.332 -106.781,-13.505c-218.742,-1.053 -437.492,-0.099 -656.239,-0.47c-22.274,-0.038 -44.24,1.004 -65.816,-13.039c-30.305,-19.724 -41.765,-47.933 -43.311,-79.95c-2.578,-53.355 -1.689,-106.917 -1.029,-160.378c0.629,-50.82 30.825,-97.577 110.138,-96.314c106.887,1.703 213.818,0.621 322.813,0.735Z" style="fill:#0b06c1;fill-rule:nonzero;"/><path d="M6054.78,4558.33c0.066,99.262 -0.48,196.446 0.444,293.616c0.491,51.723 -36.341,99.457 -97.853,96.12c-61.58,-3.34 -123.47,-0.535 -185.19,-1.926c-37.216,-0.839 -78.464,-42.837 -78.631,-79.749c-1.068,-235.973 -2.519,-471.954 -0.935,-707.913c0.176,-26.149 15.174,-54.335 29.48,-77.809c30.563,-50.151 64.847,-98.06 98.252,-146.443c21.838,-31.632 45.285,-62.153 67.163,-93.759c34.642,-50.046 68.305,-100.769 102.876,-150.865c41.902,-60.715 84.43,-120.998 126.485,-181.608c53.049,-76.457 105.929,-153.031 158.812,-229.603c24.944,-36.117 51.174,-71.452 74.198,-108.76c26.641,-43.168 66.882,-51.782 112.628,-51.569c63.115,0.294 126.249,-1.266 189.346,-0.23c60.81,0.999 97.007,34.658 95.562,94.07c-0.491,20.194 -14.623,41.522 -26.569,59.667c-24.662,37.459 -52.799,72.611 -78.142,109.647c-44.412,64.904 -87.342,130.823 -131.729,195.745c-54.921,80.326 -110.706,160.061 -166.097,240.066c-51.835,74.87 -103.475,149.877 -155.517,224.603c-37.427,53.74 -75.02,107.374 -113.273,160.527c-14.571,20.246 -22.628,40.26 -22.074,66.729c2.005,95.75 0.773,191.568 0.764,289.444Z" style="fill:#0b06c1;fill-rule:nonzero;"/><path d="M4558.68,3119.95c47.414,7.421 76.969,43.114 77.185,92.24c0.238,54.153 3.199,108.564 -1.043,162.389c-4.207,53.389 -27.006,97.066 -99.867,96.621c-211.78,-1.293 -423.574,-0.572 -635.362,-0.575c-181.234,-0.002 -362.469,0.088 -543.704,0.139c-65.921,0.019 -102.556,-36.925 -102.227,-102.481c0.252,-49.992 -0.692,-99.995 0.048,-149.977c0.558,-37.728 12.08,-72.119 47.349,-90.401c16.288,-8.443 37.334,-10.664 56.229,-10.687c390.913,-0.474 781.828,-0.242 1172.74,-0.012c8.956,0.005 17.911,1.601 28.649,2.744Z" style="fill:#0b06c1;fill-rule:nonzero;"/><path d="M4320.83,4580.43c71.492,-0.048 140.9,-0.054 210.309,-0.193c41.5,-0.083 79.008,9.543 94.097,53.01c7.485,21.566 8.425,45.98 9.125,69.201c1.253,41.599 0.908,83.293 -0.269,124.905c-1.702,60.204 -30.298,105.121 -99.909,104.59c-274.844,-2.099 -549.713,-1.015 -824.572,-1.025c-117.993,-0.003 -235.987,0.122 -353.98,0.357c-65.65,0.13 -102.116,-37.16 -101.396,-102.897c0.539,-49.265 -1.041,-98.563 0.041,-147.81c0.824,-37.544 12.456,-72.029 48.095,-90.072c15.865,-8.032 36.12,-10.233 54.388,-10.255c320.662,-0.386 641.325,-0.025 964.071,0.189Z" style="fill:#0b06c1;fill-rule:nonzero;"/><path d="M4496.47,3869.97c24.894,25.459 32.843,54.856 31.722,88.494c-1.501,45.06 -1.16,90.197 -0.881,135.296c0.234,37.908 -9.593,72.624 -42.067,93.617c-15.471,10.002 -37.849,12.759 -57.134,12.878c-156.174,0.963 -312.356,0.5 -468.535,0.511c-201.298,0.013 -402.595,0.037 -603.893,0.113c-65.21,0.025 -102.163,-37.726 -101.69,-103.127c0.361,-49.96 0.084,-99.93 -0.477,-149.889c-0.703,-62.505 39.687,-102.476 104.166,-102.455c233.922,0.076 467.844,0.153 701.766,0.186c121.474,0.017 242.97,-1.301 364.4,0.967c23.977,0.448 47.699,14.534 72.623,23.409Z" style="fill:#0b06c1;fill-rule:nonzero;"/><path d="M5413.43,3190.66c50.038,71.574 99.183,141.949 148.169,212.435c45.413,65.346 90.52,130.907 136.036,196.183c21.634,31.025 32.548,94.491 -4.272,125.813c-19.234,16.361 -40.989,28.334 -67.236,28.4c-71.464,0.181 -142.961,1.329 -214.379,-0.502c-28.505,-0.731 -55.129,-10.565 -73.318,-36.412c-68.136,-96.824 -136.948,-193.173 -205.36,-289.804c-37.178,-52.515 -73.424,-105.702 -111.289,-157.715c-26.797,-36.811 -24.625,-76.018 -7.988,-113.746c8.179,-18.543 27.223,-33.824 50.988,-34.338c82.425,-1.781 164.868,-2.695 247.297,-4.329c41.988,-0.832 67.4,24.112 88.995,55.522c3.918,5.699 7.603,11.557 12.357,18.493Z" style="fill:#0b06c1;fill-rule:nonzero;"/><path d="M3908.23,2136.29c-1.816,0.223 -3.633,0.446 -6.847,-1.071c-6.913,-5.978 -12.427,-10.216 -17.957,-16.179c-0.004,-7.475 0.007,-13.226 1.595,-19.351c5.988,-12.525 16.98,-25.928 -4.657,-33.119c-0.371,-60.992 -0.7,-121.984 -1.136,-182.975c-0.149,-20.796 0.155,-41.633 -1.094,-62.37c-0.979,-16.28 4.889,-23.143 21.389,-21.452c8.769,0.899 17.705,0.16 28.848,0.16c-0,-23.962 0.844,-45.9 -0.285,-67.735c-0.809,-15.659 4.768,-20.656 20.232,-20.054c29.776,1.159 59.617,0.613 91.419,2.642c4.915,4.55 7.842,7.233 10.77,9.915c2.64,-3.673 5.28,-7.347 7.92,-11.021c47.267,-6.572 48.482,-5.496 46.046,40.796c-0.219,4.155 -0.474,8.308 -2.669,14.461c-13.449,12.707 -13.41,20.431 -1.649,32.307c1.845,2.585 3.532,3.927 5.219,5.269c1.001,-2.14 2.001,-4.28 3.012,-7.345c0.011,-0.924 -0.114,-2.768 -0.114,-2.768c8.521,-0.175 17.043,-0.349 27.376,1.335c6.071,7.546 10.328,13.233 14.586,18.92c-0.215,82.032 -0.431,164.065 -2.513,248.084c-4.553,4.914 -7.239,7.84 -9.925,10.766c3.674,2.641 7.349,5.283 11.023,7.924c5.017,4.158 9.951,11.71 15.065,11.833c15.028,0.361 30.164,-1.916 45.187,-3.748c15.042,-1.835 20.632,3.22 20.495,19.356c-0.834,97.847 -0.642,195.702 -2.54,295.518c-3.566,4.368 -7.24,8.583 -6.924,8.907c4.773,4.897 9.66,10.071 15.577,13.149c1.246,0.649 6.722,-6.835 10.249,-10.571c35.309,-0.374 70.646,-1.716 105.915,-0.712c17.697,0.503 23.802,-3.677 23.684,-22.739c-1.052,-170.446 -1.14,-340.9 -1.01,-511.351c0.008,-9.685 -7.62,-25.921 15.484,-23.854c3.674,2.867 5.383,4.222 7.092,5.576c0.966,-2.195 1.932,-4.39 2.897,-6.585c5.777,-0.177 11.554,-0.353 19.711,0.689c4.827,-0.549 7.274,-2.317 9.721,-4.085c0.055,-0.803 0.111,-1.607 1.843,-3.611c3.963,-3.018 6.25,-4.835 8.536,-6.651c-3.146,-0.994 -6.293,-1.987 -9.439,-2.98c-0.37,-51.139 -1,-102.277 -1.054,-153.416c-0.096,-90.579 0.159,-181.159 2.088,-273.708c6.059,-8.498 10.298,-15.026 14.537,-21.555c6.066,-0.903 12.132,-1.806 20.815,-3.098c0,-7.818 0.004,-15.24 -0,-22.661c-0.052,-88.864 0.43,-177.734 -0.56,-266.588c-0.224,-20.141 6.116,-28.768 26.074,-25.548c20.593,3.321 25.232,-5.742 24.947,-25.32c-1.048,-72.182 -0.246,-144.392 1.698,-218.549c11.187,-1.924 20.539,-1.891 29.89,-1.858c0.371,73.921 1.345,147.848 0.692,221.761c-0.164,18.6 4.208,26.444 23.949,24.4c15.718,-1.627 31.753,-0.192 49.606,1.531c3.54,4.078 5.121,6.509 6.703,8.94c1.945,-1.497 3.891,-2.993 5.836,-4.49c-2.399,-2.23 -4.797,-4.46 -7.195,-6.689c0.186,-80.817 0.377,-161.634 0.554,-242.451c0.018,-8.29 0.602,-16.643 -0.206,-24.855c-1.432,-14.544 8.511,-21.514 19.188,-22.343c11.503,-0.892 23.484,4.069 21.273,21.969c-9.686,9.926 -10.349,16.909 1.225,22.143c-0.006,7.155 -0.012,14.31 -1.932,23.713c-3.26,5.2 -5.768,8.148 -5.779,11.106c-0.238,61.897 -0.337,123.797 0.1,185.692c0.031,4.293 4.449,8.556 6.826,12.832c0.264,1.922 0.527,3.845 -0.267,8.075c3.95,6.662 8.957,11.016 13.965,15.37c1.414,-3.344 2.827,-6.688 4.241,-10.033c3.103,-0.233 6.206,-0.465 11.03,1.02c6.78,6.08 11.837,10.442 16.895,14.803c0.25,7.123 0.5,14.246 -1.023,23.459c-17.852,13.11 -5.528,27.652 -5.71,40.192c-0.941,64.95 -0.621,129.922 -0.234,194.883c0.056,9.459 1.405,19.473 4.873,28.142c2.15,5.371 9.822,12.712 14.345,12.272c28.349,-2.756 56.508,-7.452 84.73,-11.506c2.805,6.51 7.032,12.804 8.059,19.584c1.314,8.665 0.048,17.722 -2.028,28.98c-3.287,9.51 -5.825,16.647 -5.841,23.788c-0.249,113.731 -0.175,227.462 -0.175,341.194c0,52.743 0,52.743 52.864,53.213c0.295,16.743 0.59,33.486 -1.033,52.622c-3.278,7.448 -5.784,12.494 -5.83,17.563c-1.386,152.256 -2.683,304.514 -3.088,456.774c-0.014,5.481 -2.806,23.145 15.068,15.407c1.94,-0.116 3.879,-0.233 7.738,1.527c7.678,3.242 13.411,5.665 19.2,5.809c45.701,1.141 91.413,2.114 137.123,2.19c3.698,0.006 7.407,-7.044 11.111,-10.816c25.552,-18.891 50.821,-38.19 76.883,-56.351c5.616,-3.913 14.069,-5.066 21.257,-5.196c40.857,-0.737 81.727,-0.843 122.593,-1.019c13.542,-0.059 27.805,-3.146 37.685,11.106c1.819,2.625 11.833,3.587 12.674,2.154c3.154,-5.378 5.604,-12.066 5.601,-18.262c-0.027,-90.044 -0.577,-180.088 -0.829,-270.133c-0.159,-56.716 -0.03,-113.433 -0.03,-173.458c11.69,0 22.457,0 35.062,2.039c3.254,13.035 4.671,24.031 6.088,35.027l0,529.963c-23.567,-22.21 -45.389,-44.017 -68.729,-64.056c-7.517,-6.453 -18.886,-11.152 -28.743,-11.643c-31.119,-1.554 -62.405,0.278 -93.53,-1.204c-19.169,-0.913 -34.379,4.059 -49.365,16.108c-19.273,15.496 -40.549,28.501 -62.486,40.727c-5.774,-4.626 -9.887,-9.128 -14.331,-9.481c-2.392,-0.19 -5.348,6.733 -8.05,10.447c-63.955,0.61 -127.91,1.219 -193.814,0.028c-6.146,-6.366 -10.344,-10.93 -14.541,-15.494c0.177,-165.365 0.354,-330.73 2.345,-498.067c4.408,-4.19 7.001,-6.406 9.595,-8.623c-3.536,-1.973 -7.072,-3.945 -10.608,-5.918c-0.359,-4.625 -0.717,-9.251 -1.258,-16.917c-4.29,-3.244 -8.399,-3.447 -12.507,-3.65c-44.405,1.399 -37.847,4.446 -37.657,-38.117c0.509,-114.526 0.238,-229.056 0.309,-343.584c0.011,-15.962 0.204,-31.923 2.222,-49.882c4.602,-6.338 9.015,-10.576 9.284,-15.062c0.14,-2.363 -6.956,-5.158 -10.785,-7.758c-25.938,-1.344 -51.909,-4.123 -77.803,-3.537c-17.944,0.405 -24.057,-4.118 -23.481,-22.985c2.49,-81.473 3.494,-162.991 6.848,-246.462c5.101,-7.648 8.393,-13.325 11.684,-19.002c-4.899,-2.539 -9.799,-5.078 -14.699,-7.617c-52.05,-0.088 -104.111,0.354 -156.146,-0.593c-15.322,-0.279 -18.437,5.612 -18.38,19.424c0.367,88.139 0.025,176.281 -1.917,266.379c-7.453,8.506 -13.074,15.056 -18.696,21.605c-14.726,0.87 -12.481,11.716 -12.481,21.238c-0.002,112.191 0.007,224.382 -0.019,336.573c-0.003,13.155 -0.201,26.31 -2.176,41.453c-4.552,4.91 -7.238,7.834 -9.923,10.757c3.667,2.645 7.334,5.29 11.002,7.934c0.45,3.43 1.072,6.846 1.327,10.29c3.003,40.7 2.988,40.701 -40.48,39.057c-5.011,0.544 -7.462,2.298 -9.914,4.052c0.108,181.202 0.036,362.405 0.641,543.606c0.052,15.656 -4.598,20.357 -20.101,19.926c-67.118,-1.868 -134.267,-2.686 -203.353,-5.684c-6.145,-6.368 -10.343,-10.935 -14.54,-15.503c0.067,-93.454 -0.381,-186.913 0.631,-280.358c0.205,-18.999 -4.796,-26.627 -24.183,-24.112c-11.604,1.505 -23.573,0.051 -35.239,1.26c-16.104,1.67 -21.663,-3.843 -21.411,-20.723c1.21,-80.988 1.165,-161.994 3.508,-245c14.717,-13.587 13.702,-20.791 -1.611,-27.228c0,0 -0.41,0.124 -0.611,-1.274c-2.976,-1.722 -5.752,-2.045 -8.528,-2.368c-41.339,1.68 -33.461,1.599 -32.743,-36.278c0.904,-4.775 0.618,-7.137 0.331,-9.499c-2.482,-42.016 -2.491,-42.521 -44.987,-41.782c-18.556,0.323 -37.069,3.197 -57.64,6.549c-4.315,3.457 -6.59,5.277 -8.866,7.097c3.143,0.991 6.286,1.982 9.428,2.972c0.657,19.177 1.045,38.369 2.062,57.527c0.705,13.29 -4.4,19.466 -19.901,15.189c-4.038,-4.408 -6.256,-7.018 -8.474,-9.627c-1.969,3.558 -3.938,7.117 -5.907,10.675c-1.641,0.443 -3.281,0.887 -7.873,1.316c-6.208,3.999 -9.465,8.011 -12.721,12.024c3.712,2.91 7.425,5.82 11.137,8.731c0.265,84.772 0.529,169.543 -1.078,256.246c-6.073,5.714 -10.272,9.496 -14.472,13.278Z" style="fill:#939393;fill-rule:nonzero;"/><path d="M5895.9,2100.58c41.955,-5.179 41.929,-5.179 41.683,35.63c-0.121,20.095 1.031,40.281 -0.523,60.261c-1.351,17.36 5.657,21.491 21.458,20.523c19.333,-1.185 38.858,-1.345 58.173,-0.049c16.411,1.101 21.247,-4.282 21.133,-20.9c-0.734,-107.407 -0.398,-214.821 -0.413,-322.232c-0.001,-4.79 -0,-9.58 -0,-18.656c55.811,-11.416 111.633,-22.834 169.217,-32.074c1.803,16.971 1.843,31.763 1.883,46.555c-36.338,7.83 -72.604,16.027 -109.05,23.319c-15.592,3.12 -20.728,10.639 -20.589,26.963c0.86,101.225 0.491,202.461 0.587,303.693c0.027,29.633 0.117,29.417 -30.111,28.601c-36.002,-0.971 -72.015,-1.525 -111.188,-3.545c-16.187,-1.81 -29.21,-2.334 -42.234,-2.859c-0.085,-33.186 -0.171,-66.372 -0.211,-103.4c0.091,-16.505 0.138,-29.168 0.185,-41.83Z" style="fill:#757575;fill-rule:nonzero;"/><path d="M5364.45,1912.73c-3.231,-10.775 -4.648,-21.771 -6.054,-34.41c10.247,-2.506 20.482,-3.368 32.944,-4.418l0,-47.976c3.377,-2.449 4.403,-3.817 5.568,-3.947c32.281,-3.609 32.324,-3.588 32.268,-37.522c-0.032,-19.438 -0.25,-38.876 -0.327,-58.314c-0.058,-14.514 4.925,-29.289 20.104,-28.483c8.072,0.428 20.611,14.558 22.021,23.881c3.903,25.807 4.243,52.369 3.588,78.572c-0.423,16.896 5.256,21.577 21.492,21.003c44.33,-1.569 36.518,5.309 37.157,-37.828c0.308,-20.821 -0.463,-41.656 -0.324,-62.482c0.085,-12.793 3.436,-24.761 19.051,-24.525c15.313,0.232 18.953,12.585 19.213,24.939c0.512,24.286 -0.114,48.596 -0.247,72.896c-0.04,7.398 -0.007,14.797 -0.007,22.586c6.546,-0 9.941,0.12 13.323,-0.019c35.114,-1.442 35.841,-1.469 36.545,33.544c0.304,15.095 7.397,16.954 19.63,16.234c12.93,-0.761 25.945,-0.099 37.943,1.779c-15.75,1.917 -30.402,3.272 -25.837,23.891c14.526,65.611 9.321,132.142 9.241,198.362c-0.01,7.339 -10.418,14.666 -16.003,21.999l0,-207.257c-15.285,-0 -30.223,-0.997 -44.969,0.26c-17.302,1.475 -23.672,-4.925 -22.119,-22.201c1.042,-11.583 4.548,-27.064 -19.428,-25.515c-10.384,-0.889 -18.08,-0.313 -25.776,0.263c-29.332,0.145 -58.665,0.291 -90.579,-0.654c-4.209,-1.109 -5.836,-1.127 -7.463,-1.146c0.469,1.995 0.939,3.99 1.408,5.985c0.149,14.099 0.297,28.198 -1.837,44.168c-15.896,3.129 -29.511,4.386 -43.125,5.643c-8.529,0.157 -17.059,0.314 -27.401,0.692Z" style="fill:#8c8c8c;fill-rule:nonzero;"/><path d="M6587.74,2136.16c-26.915,0.537 -53.83,1.153 -80.747,1.583c-15.855,0.253 -12.456,-11.83 -12.427,-20.795c0.23,-73.353 0.757,-146.705 1.182,-220.057c0.043,-7.508 0.007,-15.016 0.007,-26.431c-42.813,0 -84.013,0 -127.14,-1.987c-12.973,-16.772 -8.05,-31.531 -1.854,-46.288c53.245,-0.55 106.492,-1.002 159.735,-1.709c15.381,-0.205 15.642,9.816 15.615,20.986c-0.18,76.82 -0.194,153.639 -0.261,230.459c-0.005,6.801 -0,13.601 -0,23.942c13.808,0 25.958,0 39.949,2.354c3.208,14.216 4.574,26.08 5.941,37.943Z" style="fill:#565656;fill-rule:nonzero;"/><path d="M3552.14,5576.52c-1.474,-12.657 4.363,-14.405 13.54,-14.215c22.896,0.475 45.811,0.333 68.713,0.056c7.577,-0.091 15.283,-0.664 22.678,-2.217c15.849,-3.328 27.119,-12.313 26.448,-29.636c-0.633,-16.333 -11.938,-25.24 -27.171,-26.462c-33.717,-2.703 -67.549,-3.971 -102.791,-5.904l0,-20.872c38.571,0 76.598,-1.673 114.399,0.531c30.02,1.752 46.002,18.591 49.105,44.36c3.776,31.348 -7.388,50.326 -36.392,61.947c-2.526,1.013 -4.955,2.267 -5.889,2.698c20.091,29.434 40.026,58.641 60.538,88.692c-36.21,8.653 -39.421,7.361 -57.163,-20.667c-6.669,-10.537 -14.072,-20.651 -20.154,-31.511c-15.605,-27.866 -38.602,-38.257 -72.649,-30.023c-0,13.128 -0,27.387 -0,41.645c-0,13.819 -0,27.638 -0,42.851l-33.219,0c-0,-32.988 -0,-66.165 0.007,-101.273Z" style="fill:#28227e;fill-rule:nonzero;"/><path d="M4314.63,5645.41c0.001,-26.882 0.001,-51.747 0.001,-78.778c22.189,-0 42.824,0.961 63.319,-0.315c15.435,-0.962 30.875,-4.021 45.977,-7.57c14.397,-3.383 25.054,-14.262 21.321,-28.349c-2.636,-9.948 -13.573,-22.891 -22.848,-24.858c-22.676,-4.809 -46.528,-4.261 -69.928,-5.397c-11.705,-0.568 -23.46,-0.098 -36.491,-0.098l0,-22.751c38.84,0 76.866,-1.684 114.663,0.536c29.928,1.759 45.902,18.7 48.937,44.466c3.696,31.376 -7.449,50.242 -36.469,61.83c-2.527,1.008 -4.94,2.297 -5.81,2.706c20.088,29.422 40.022,58.618 60.531,88.656c-36.134,8.684 -39.425,7.369 -57.137,-20.61c-6.294,-9.943 -12.538,-19.926 -19.147,-29.659c-23.122,-34.05 -28.964,-36.713 -73.208,-32.756l0,86.127l-33.711,-0c-0,-10.75 -0,-20.957 0,-33.18Z" style="fill:#28227e;fill-rule:nonzero;"/><path d="M5645.44,2114.34c5.89,-9.182 16.298,-16.509 16.308,-23.848c0.08,-66.22 5.285,-132.751 -9.241,-198.362c-4.565,-20.619 10.087,-21.974 26.702,-22.547c1.847,-0.492 1.835,-0.273 1.212,1.658c0.395,12.205 1.413,22.48 2.431,32.754c0.061,62.75 0.122,125.499 -0.892,190.864c1.03,3.732 3.135,4.85 5.24,5.968c68.276,-0.288 136.552,-0.576 206.766,-0.555c1.89,12.971 1.843,25.634 1.672,40.235c-74.839,1.696 -149.561,0.743 -224.261,1.676c-20.305,0.254 -30.651,-3.966 -25.937,-27.843Z" style="fill:#808080;fill-rule:nonzero;"/><path d="M6122.4,5523.53c-9.367,-15.104 -17.841,-28.994 -27.737,-45.217c24.026,-4.99 39.299,-4.637 51.931,17.005c23.262,39.855 50.214,77.557 79.665,115.402l-0,-133.989l32.598,-0l0,200.566c-22.1,6.511 -36.192,0.129 -48.754,-20.705c-27.148,-45.028 -57.669,-88.023 -87.703,-133.062Z" style="fill:#28227e;fill-rule:nonzero;"/><path d="M4073.87,5556.4c12.735,-32.977 0.398,-51.583 -33.236,-52.098c-27.022,-0.413 -54.055,-0.083 -82.691,-0.083l-0,-25.732c37.292,-0 74.581,-2.224 111.46,0.709c29.124,2.315 43.718,24.311 43.911,56.054c0.199,32.542 -14.885,54.659 -42.721,60.325c-12.793,2.604 -26.101,3.029 -39.213,3.615c-13.033,0.583 -26.113,0.128 -41.19,0.128l0,78.627l-32.881,0l0,-107.147c27.196,-0 53.518,1.336 79.599,-0.588c12.244,-0.904 24.025,-8.089 36.962,-13.81Z" style="fill:#28227e;fill-rule:nonzero;"/><path d="M3441.42,5599.31c-12.281,0.001 -22.539,0.001 -34.734,0.001l0,78.726l-32.681,-0l-0,-107.256c27.893,-0 54.807,0.44 81.7,-0.129c24.877,-0.526 38.751,-11.371 40.528,-30.136c2.004,-21.167 -11.491,-35.517 -35.634,-36.091c-28.338,-0.675 -56.704,-0.158 -86.339,-0.158l-0,-26.536c36.797,-0 72.757,-2.05 108.364,0.619c31.06,2.328 46.72,23.423 47.348,55.367c0.68,34.605 -14.848,56.691 -45.251,62.194c-13.521,2.448 -27.504,2.344 -43.301,3.399Z" style="fill:#28227e;fill-rule:nonzero;"/><path d="M3883.45,2100.06c-0.011,5.75 -0.022,11.501 -0.055,20.569c-0.101,7.535 -0.182,11.754 -0.262,15.972c-0.729,17.066 -1.571,34.129 -2.068,51.202c-0.077,2.629 1.739,5.256 2.167,7.965c5.455,34.542 2.454,38.021 -32.225,37.938c-63.067,-0.15 -126.134,-0.269 -190.808,-2.45c-1.819,-14.199 -2.031,-26.349 -2.243,-38.499c52.715,-0.449 105.445,-1.809 158.136,-0.884c20.083,0.352 27.448,-5.5 25.655,-25.747c-1.585,-17.912 0.634,-36.142 -0.601,-54.109c-1.221,-17.757 2.546,-28.419 23.31,-24.987c3.84,0.635 8.094,-1.239 14.775,-1.686c3.152,5.084 3.685,9.9 4.219,14.716Z" style="fill:#a3a3a3;fill-rule:nonzero;"/><path d="M6589.64,2136.57c-3.265,-12.273 -4.631,-24.137 -6.026,-37.691c20.849,-2.062 41.726,-2.434 65.711,-1.473c14.773,0.534 26.44,-0.264 38.106,-1.063c63.075,-0.444 126.149,-0.891 189.224,-1.331c13.755,-0.096 28.248,4.394 26.194,19.127c-1.234,8.851 -15.278,16.51 -24.58,23.315c-3.168,2.318 -9.438,0.42 -14.291,0.405c-90.813,-0.289 -181.627,-0.585 -274.338,-1.289Z" style="fill:#333437;fill-rule:nonzero;"/><path d="M4629.14,5475.64c39.585,-5.175 69.569,1.231 87.296,41.209c12.261,27.651 15.633,26.155 -6.684,51.271c-8.327,-12.196 -16.542,-24.151 -24.675,-36.16c-7.719,-11.398 -15.353,-22.854 -20.227,-30.117l-71.847,0l-0,176.5l-33.332,-0l0,-202.703l69.469,-0Z" style="fill:#2b2580;fill-rule:nonzero;"/><path d="M6385.9,5681.29c-11.216,-3.997 -11.216,-3.997 -10.296,-26.003c1.8,-1.004 3.945,-2.763 6.394,-3.474c15.695,-4.563 29.252,-12.436 28.714,-30.566c-0.528,-17.809 -15.782,-22.797 -30.111,-26.797c-14.652,-4.09 -29.553,-7.295 -44.194,-11.423c-36.68,-10.344 -52.08,-28.685 -49.755,-58.647c2.267,-29.205 23.557,-46.846 61.93,-50.58c2.875,15.237 5.378,28.643 -15.169,35.435c-5.978,1.976 -12.533,14.469 -11.72,21.295c0.817,6.859 9.371,15.819 16.488,18.338c21.436,7.586 44.147,11.503 65.765,18.655c34.474,11.405 49.592,41.513 37.577,73.626c-9.214,24.629 -29.183,35.72 -55.623,40.141Z" style="fill:#2b2580;fill-rule:nonzero;"/><path d="M5076.11,5604.22c7.09,46.513 -13.816,70.902 -66.326,78.008l-0,-27.126c0.516,-0.364 1.969,-1.997 3.756,-2.55c15.991,-4.952 31.361,-12.073 30.45,-31.436c-0.94,-19.99 -18.903,-23.49 -34.159,-27.937c-15.259,-4.448 -30.94,-7.493 -46.105,-12.213c-32.235,-10.032 -45.992,-28.338 -43.72,-56.739c2.123,-26.54 21.587,-44.91 52.779,-49.732c2.72,-0.42 5.498,-0.46 9.168,-0.749c3.073,15.491 4.938,28.726 -15.336,35.564c-5.96,2.011 -11.863,14.163 -11.634,21.474c0.193,6.104 8.29,14.904 14.803,17.302c18.076,6.652 37.233,10.302 55.81,15.671c21.727,6.28 42.183,14.542 50.514,40.463Z" style="fill:#2b2580;fill-rule:nonzero;"/><path d="M5734.24,5533.31l-0,144.743l-32.722,-0l-0,-201.488l97.048,-0l0,27.228l-64.326,0c0,10.128 0,18.772 -0,29.517Z" style="fill:#2b2580;fill-rule:nonzero;"/><path d="M6061.39,5522.54c3.723,27.147 10.884,53.214 8.899,78.563c-3.675,46.901 -36.989,75.675 -86.018,80.179l0,-26.349c41.942,-19.39 57.335,-41.807 55.264,-80.37c-2.066,-38.471 -17.934,-59.89 -55.008,-73.005l-0,-28.035c34.27,2.006 59.391,17.77 76.863,49.017Z" style="fill:#29237f;fill-rule:nonzero;"/><path d="M5232.15,5479.86c47.722,25.643 66.628,70.746 54.837,127.775c-8.907,43.083 -40.234,70.042 -86.122,73.394l-0,-26.159c41.235,-18.567 56.479,-40.286 55.365,-78.5c-1.134,-38.864 -17.303,-61.229 -55.109,-75.027l0,-28.603c10.157,2.275 19.849,4.446 31.029,7.12Z" style="fill:#29237f;fill-rule:nonzero;"/><path d="M3873.73,5641.28c48.071,-46.339 34.236,-116.93 -26.929,-140.278l-0,-25.727c49.139,-0.989 84.902,36.57 88.488,92.497c4.187,65.301 -27.929,107.084 -88.436,113.778l0,-26.679c8.356,-4.182 16.941,-8.479 26.877,-13.591Z" style="fill:#29237f;fill-rule:nonzero;"/><path d="M5092.81,5556.44c11.837,-53.006 38.742,-78.793 85.312,-82.336l-0,26.547c-46.401,22.638 -64.499,58.775 -48.329,105.439c5.198,15 17.774,31.418 31.468,38.503c17.581,9.097 20.48,19.141 16.775,35.384c-47.861,-1.217 -83.541,-38.533 -86.243,-90.552c-0.538,-10.351 0.45,-20.781 1.017,-32.985Z" style="fill:#29237f;fill-rule:nonzero;"/><path d="M3743.31,5618.29c-1.029,-26.22 -5.011,-51.529 -0.887,-75.44c6.952,-40.312 38.862,-65.123 81.483,-68.944l0,26.659c-46.477,23.406 -64.356,58.994 -48.308,105.41c5.194,15.02 17.718,31.581 31.414,38.569c17.726,9.045 20.531,19.119 16.452,37.187c-39.453,-4.359 -65.938,-24.526 -80.154,-63.441Z" style="fill:#29237f;fill-rule:nonzero;"/><path d="M5952.07,5474.49c19.738,3.414 5.902,17.361 12.2,26.885c-43.371,11.511 -57.247,42.131 -55.745,82.031c1.312,34.87 18.168,58.863 53.003,69.724l-0,26.521c-44.761,0.163 -79.565,-33.734 -86.03,-83.707c-8.033,-62.097 20.154,-107.693 76.572,-121.454Z" style="fill:#29237f;fill-rule:nonzero;"/><path d="M5460.46,5512.85l0,-36.063l33.244,0c0,20.937 -0.242,42.115 0.063,63.285c0.36,24.934 -0.332,50.039 2.542,74.707c1.222,10.478 8.025,25.244 16.351,28.955c18.926,8.438 18.442,20.879 15.221,36.429c-39.538,-0.758 -62.44,-20.029 -65.328,-59.28c-2.589,-35.197 -1.538,-70.661 -2.093,-108.033Z" style="fill:#28227e;fill-rule:nonzero;"/><path d="M4727.11,5629.36c-4.041,-29.77 4.988,-52.709 22.741,-74.28c13.962,-16.965 26.237,-35.935 35.904,-55.66c11.684,-23.836 28.971,-28.154 55.358,-21.144c-12.152,17.764 -23.652,34.573 -35.147,51.385c-0.782,1.144 -1.381,2.446 -2.302,3.458c-34.834,38.259 -51.908,82.198 -43.4,134.483c0.524,3.222 -0.626,6.716 -1.078,10.817l-32.077,0c0,-15.791 0,-31.421 0.001,-49.059Z" style="fill:#29237f;fill-rule:nonzero;"/><path d="M5572.5,5643.91c6.583,-18.979 15.258,-36.728 16.43,-54.959c2.383,-37.065 0.713,-74.389 0.713,-112.418l30.07,0c0,51.85 2.41,103.561 -0.915,154.901c-1.955,30.17 -25.828,45.559 -63.126,50.16c-2.542,-15.624 -6.58,-31.378 16.828,-37.684Z" style="fill:#28227e;fill-rule:nonzero;"/><path d="M6364.88,1821.62c-4.307,15.319 -9.23,30.078 1.854,46.36c-51.447,1.822 -102.93,2.146 -156.317,2.061c-1.944,-15.201 -1.984,-29.993 -1.963,-46.393c51.554,-1.936 103.045,-2.263 156.426,-2.028Z" style="fill:#606060;fill-rule:nonzero;"/><path d="M5308.3,5545.84c-0.001,-24.102 -0.001,-46.123 -0.001,-69.125l31.813,0l0,201.242l-31.812,0l-0,-132.117Z" style="fill:#28227e;fill-rule:nonzero;"/><path d="M3183.14,2232.57c-47.167,0.27 -94.335,0.539 -143.486,-1.377c-3.134,-13.2 -4.283,-24.215 -5.432,-35.231c6.243,-1.484 12.482,-4.23 18.731,-4.252c48.967,-0.173 97.937,0.177 147.662,1.548c-1.17,12.674 -3.096,24.166 -6.4,35.687c-4.611,1.227 -7.843,2.426 -11.075,3.625Z" style="fill:#0c0d11;fill-rule:nonzero;"/><path d="M3195.6,2228.91c1.926,-11.493 3.852,-22.985 6.896,-35.23c45.786,-1.037 90.456,-1.321 137.049,0.39c10.058,30.223 6.791,34.741 -22.307,34.806c-40.546,0.091 -81.092,0.03 -121.638,0.034Z" style="fill:#333437;fill-rule:nonzero;"/><path d="M4289.31,5679.23l-152.47,-0l0,-28.005l152.47,-0l-0,28.005Z" style="fill:#2b2580;fill-rule:nonzero;"/><path d="M4137.06,5501.93c-1.092,-8.933 -1.092,-16.411 -1.092,-25.081l149.269,0l-0,26.536c-49.166,-0 -98.126,-0 -148.177,-1.455Z" style="fill:#2b2580;fill-rule:nonzero;"/><path d="M4278.34,5587.55l-141.699,0l-0,-27.873l141.699,0l0,27.873Z" style="fill:#29237f;fill-rule:nonzero;"/><path d="M4869.75,2386.68c-17.147,9.383 -14.355,-8.281 -14.341,-13.762c0.405,-152.26 1.702,-304.518 3.088,-456.774c0.046,-5.069 2.552,-10.115 5.435,-15.672c1.951,7.757 2.746,16.014 2.751,24.272c0.075,145.244 0.017,290.487 0.152,435.731c0.007,8.187 1.426,16.373 2.915,26.205Z" style="fill:#9b9b9b;fill-rule:nonzero;"/><path d="M3656.06,2192.47c2.11,12.439 2.322,24.589 2.231,38.25c-19.777,1.795 -39.253,2.078 -61.897,1.049c-14.814,-1.785 -26.458,-2.257 -37.932,-4.229c0.056,-11.525 -0.059,-21.55 1.605,-31.666c11.679,-1.247 21.579,-2.402 31.479,-3.557c20.872,-0.045 41.744,-0.09 64.514,0.153Z" style="fill:#808080;fill-rule:nonzero;"/><path d="M5816.63,5677.93l-0,-114.19l32.191,-0l-0,114.19l-32.191,-0Z" style="fill:#28227e;fill-rule:nonzero;"/><path d="M3194.22,2228.94c41.924,-0.032 82.47,0.029 123.016,-0.062c29.098,-0.065 32.365,-4.583 24.204,-34.394c25.156,-1.905 50.34,-2.225 77.42,-0.51c1.893,14.067 1.889,26.099 1.886,38.131c-19.549,0.495 -39.098,0.99 -60.879,0.773c-3.332,-0.245 -4.433,0.223 -5.534,0.691c-0.752,0.025 -1.503,0.048 -3.651,-0.633c-2.479,-0.243 -3.561,0.221 -4.644,0.684c-53.066,0.134 -106.132,0.267 -161.045,-0.327c1.384,-1.927 4.616,-3.126 9.227,-4.353Z" style="fill:#565656;fill-rule:nonzero;"/><path d="M4865.01,1844.51c-52.511,0.989 -52.511,0.989 -52.511,-51.754c0,-113.732 -0.074,-227.463 0.175,-341.194c0.016,-7.141 2.554,-14.278 5.445,-21.916c1.947,36.822 2.658,74.142 2.731,111.462c0.177,91.327 0.058,182.654 0.058,273.981l0,21.884c16.146,2.243 29.948,4.161 44.102,7.537Z" style="fill:#9b9b9b;fill-rule:nonzero;"/><path d="M4811.16,1378.26c-26.897,5.003 -55.056,9.699 -83.405,12.455c-4.523,0.44 -12.195,-6.901 -14.345,-12.272c-3.468,-8.669 -4.817,-18.683 -4.873,-28.142c-0.387,-64.961 -0.707,-129.933 0.234,-194.883c0.182,-12.54 -12.142,-27.082 5.321,-38.446c1.807,77.213 2.267,154.771 2.631,232.328c0.139,29.779 0.042,30.007 29.023,29.722c21.367,-0.211 42.726,-1.116 65.414,-0.762Z" style="fill:#9b9b9b;fill-rule:nonzero;"/><path d="M4946.68,5618.25c10.767,13.533 21.104,25.436 31.441,37.338c1.501,-1.057 3.002,-2.114 4.503,-3.171l0,26.428c-40.989,1.787 -68.457,-24.861 -69.472,-72.981c12.149,3.948 22.624,7.351 33.528,12.386Z" style="fill:#29237f;fill-rule:nonzero;"/><path d="M6283.32,5636.51c-1.849,-9.48 -3.223,-17.379 -4.881,-26.924l33,-0c2.377,21.945 15.701,36.26 37.869,42.22l0,28.829c-31.05,-1.439 -53.202,-14.225 -65.988,-44.125Z" style="fill:#29237f;fill-rule:nonzero;"/><path d="M3558.28,2195.97c0.115,10.024 0.23,20.049 -1.758,31.644c-21.627,2.907 -41.15,4.243 -60.673,5.58c-5.891,0.027 -11.782,0.055 -19.335,-2.18c-3.061,-14.236 -4.459,-26.211 -5.857,-38.185c4.484,-0.45 8.969,-0.899 16.433,-0.057c25.717,1.928 48.453,2.563 71.19,3.198Z" style="fill:#757575;fill-rule:nonzero;"/><path d="M5008.26,5484.82c3.13,-4.493 6.317,-9.878 9.38,-9.808c31.288,0.714 54.635,26.292 55.275,61.308c-10.04,0.495 -20.147,0.993 -30.254,1.492c1.021,-1.546 2.042,-3.092 3.064,-4.638c-10.538,-9.701 -21.691,-18.84 -31.308,-29.381c-3.809,-4.175 -4.207,-11.463 -6.157,-18.973Z" style="fill:#2b2580;fill-rule:nonzero;"/><path d="M6434.56,5507.85c2.891,9.2 5.049,17.011 8.076,27.967c-12.041,0.824 -21.896,1.499 -31.751,2.174c0.833,-1.363 1.666,-2.727 2.499,-4.091c-11.671,-10.243 -24.824,-19.294 -34.404,-31.216c-4.993,-6.213 -3.687,-17.487 -5.635,-28.858c27.631,1.599 47.796,10.052 61.215,34.024Z" style="fill:#2b2580;fill-rule:nonzero;"/><path d="M5384.04,5650.64l56.631,0l-0,27.274l-76.836,0l-0,-26.32c6.114,-0.32 12.163,-0.637 20.205,-0.954Z" style="fill:#2b2580;fill-rule:nonzero;"/><path d="M6108.46,5679.19c-4.79,-4.348 -9.712,-8.587 -9.903,-13.029c-0.859,-19.95 -0.374,-39.958 -0.374,-61.643l31.532,-0l0,74.688c-6.049,-0 -12.629,-0 -21.255,-0.016Z" style="fill:#28227e;fill-rule:nonzero;"/><path d="M3468.79,2192.41c3.269,12.386 4.667,24.361 6.049,38.038c-16.795,2.045 -33.574,2.387 -52.224,2.191c-1.867,-12.57 -1.863,-24.602 -1.866,-38.181c15.385,-1.851 30.777,-2.156 48.041,-2.048Z" style="fill:#606060;fill-rule:nonzero;"/><path d="M5841.17,5537.52c-8.753,0.022 -15.547,0.022 -23.44,0.022l-0,-60.963l31.99,-0c-0,19.061 0.127,38.134 -0.283,57.197c-0.027,1.286 -4.112,2.484 -8.267,3.744Z" style="fill:#28227e;fill-rule:nonzero;"/><path d="M4670.11,1060.62c-2.848,-2.37 -7.266,-6.633 -7.297,-10.926c-0.437,-61.895 -0.338,-123.795 -0.1,-185.692c0.011,-2.958 2.519,-5.906 5.388,-9.36c1.842,67.69 2.161,135.88 2.009,205.978Z" style="fill:#9b9b9b;fill-rule:nonzero;"/><path d="M5670.01,5475.65c24.169,1.157 8.504,17.635 14.897,27.382l-48.216,-0l0,-27.385c11.077,0 21.243,0 33.319,0.003Z" style="fill:#2b2580;fill-rule:nonzero;"/><path d="M4541.72,5495.63c-14.84,5.147 -29.657,8.36 -46.562,12.025l0,-30.93l45.287,0c0.406,5.306 0.851,11.138 1.275,18.905Z" style="fill:#2b2580;fill-rule:nonzero;"/><path d="M5043.72,2387.14c-1.767,3.67 -5.476,10.721 -9.174,10.714c-45.71,-0.076 -91.422,-1.049 -137.123,-2.19c-5.789,-0.144 -11.522,-2.567 -17.779,-5.46c53.715,-2.005 107.927,-2.483 164.076,-3.064Z" style="fill:#9b9b9b;fill-rule:nonzero;"/><path d="M3560.06,2195.88c-24.516,-0.543 -47.252,-1.178 -71.268,-2.963c32.517,-1.675 66.313,-2.201 101.428,-1.66c-8.581,2.221 -18.481,3.376 -30.16,4.623Z" style="fill:#a3a3a3;fill-rule:nonzero;"/><path d="M3497.24,2234.17c18.136,-2.311 37.659,-3.647 59.115,-5.054c13.577,0.402 25.221,0.874 38.095,2.444c-31.121,1.927 -63.472,2.755 -97.21,2.61Z" style="fill:#a3a3a3;fill-rule:nonzero;"/><path d="M4549.26,827.521c-9.814,1.715 -19.166,1.682 -29.954,1.699c-1.746,-5.949 -2.055,-11.947 -2.489,-20.379c14.105,3.347 34.447,-13.072 32.443,18.68Z" style="fill:#9b9b9b;fill-rule:nonzero;"/><path d="M4489.11,1428.43c3.913,-7.005 9.534,-13.555 16.589,-20.153c4.887,13.859 2.97,23.526 -16.589,20.153Z" style="fill:#9b9b9b;fill-rule:nonzero;"/><path d="M4244.4,2417.41c-1.993,4.199 -7.469,11.683 -8.715,11.034c-5.917,-3.078 -10.804,-8.252 -15.577,-13.149c-0.316,-0.324 3.358,-4.539 6.532,-6.997c6.312,2.847 11.269,5.748 17.76,9.112Z" style="fill:#9b9b9b;fill-rule:nonzero;"/><path d="M5393.13,1913.03c12.335,-2.256 25.95,-3.513 41.341,-4.795c-12.17,1.915 -26.116,3.854 -41.341,4.795Z" style="fill:#939393;fill-rule:nonzero;"/><path d="M5896.16,2247.38c12.792,-1.05 25.815,-0.526 40.047,1.166c-12.466,0.914 -26.141,0.661 -40.047,-1.166Z" style="fill:#8c8c8c;fill-rule:nonzero;"/><path d="M3885.02,2099.69c-2.111,-4.441 -2.644,-9.257 -4.224,-15.056c-1.155,-5.569 -1.264,-10.155 -0.903,-16.402c22.107,5.53 11.115,18.933 5.127,31.458Z" style="fill:#9b9b9b;fill-rule:nonzero;"/><path d="M4100,1800c-11.603,-10.632 -11.642,-18.356 1.406,-29.164c1.926,5.782 2.296,11.664 1.489,20.006c-1.75,4.692 -2.323,6.925 -2.895,9.158Z" style="fill:#9b9b9b;fill-rule:nonzero;"/><path d="M4682.7,1122.93c4.737,0.774 9.637,3.313 14.536,5.852c-3.291,5.677 -6.583,11.354 -11.285,17.094c-1.971,-7.019 -2.53,-14.1 -3.251,-22.946Z" style="fill:#9b9b9b;fill-rule:nonzero;"/><path d="M4108.77,1847.32c15.619,4.631 16.634,11.835 2.315,23.514c-1.902,-7.171 -2.261,-14.44 -2.315,-23.514Z" style="fill:#9b9b9b;fill-rule:nonzero;"/><path d="M6686.09,2095.51c-10.325,1.629 -21.992,2.427 -34.823,2.094c10.384,-1.729 21.932,-2.326 34.823,-2.094Z" style="fill:#757575;fill-rule:nonzero;"/><path d="M4150.84,1815.33c-4.86,-4.366 -9.117,-10.053 -13.387,-17.279c15.138,-4.095 17.3,3.742 13.387,17.279Z" style="fill:#9b9b9b;fill-rule:nonzero;"/><path d="M3033.27,2197.2c2.103,9.777 3.252,20.792 4.499,33.564c-1.753,-9.604 -3.603,-20.965 -4.499,-33.564Z" style="fill:#565656;fill-rule:nonzero;"/><path d="M4444.33,1392.44c-2.631,6.983 -6.87,13.511 -12.529,20.102c-3.096,-10.276 -5.574,-21.095 12.529,-20.102Z" style="fill:#9b9b9b;fill-rule:nonzero;"/><path d="M5683.86,1902.79c-2.028,-9.075 -3.046,-19.35 -3.417,-31.448c1.907,8.868 3.167,19.558 3.417,31.448Z" style="fill:#8c8c8c;fill-rule:nonzero;"/><path d="M4779.65,1422.5c4.165,0.866 11.261,3.661 11.12,6.024c-0.268,4.486 -4.681,8.724 -8.883,13.154c-1.865,-5.755 -2.219,-11.599 -2.237,-19.178Z" style="fill:#9b9b9b;fill-rule:nonzero;"/><path d="M3924.25,1865.09c-4.182,-1.237 -7.895,-4.147 -11.607,-7.057c3.256,-4.013 6.513,-8.025 11.445,-11.964c1.327,5.833 0.98,11.59 0.162,19.021Z" style="fill:#9b9b9b;fill-rule:nonzero;"/><path d="M5039.11,2424.27c0.993,-4.178 3.949,-11.101 6.341,-10.911c4.444,0.353 8.556,4.855 12.883,9.16c-5.787,1.758 -11.651,1.986 -19.224,1.751Z" style="fill:#9b9b9b;fill-rule:nonzero;"/><path d="M3884.81,2136.96c-1.602,-4.572 -1.522,-8.791 -1.405,-14.601c5.551,2.645 11.065,6.883 16.637,12.523c-4.478,1.745 -9.014,2.088 -15.232,2.078Z" style="fill:#9b9b9b;fill-rule:nonzero;"/><path d="M4715.93,1090.26c-5.483,-2.855 -10.54,-7.217 -15.79,-12.961c5.277,2.895 10.747,7.174 15.79,12.961Z" style="fill:#9b9b9b;fill-rule:nonzero;"/><path d="M4474.27,1844.28c-4.132,-0.994 -7.799,-3.639 -11.466,-6.284c2.685,-2.923 5.371,-5.847 9.524,-8.849c1.78,4.441 2.093,8.962 1.942,15.133Z" style="fill:#9b9b9b;fill-rule:nonzero;"/><path d="M4056.78,1713.22c-0.989,4.133 -3.629,7.807 -6.269,11.48c-2.928,-2.682 -5.855,-5.365 -8.863,-9.515c4.44,-1.786 8.96,-2.105 15.132,-1.965Z" style="fill:#9b9b9b;fill-rule:nonzero;"/><path d="M4686.11,1075.53c0.06,3.759 -1.353,7.103 -2.767,10.447c-5.008,-4.354 -10.015,-8.708 -14.179,-13.923c5.719,0.448 10.596,1.755 16.946,3.476Z" style="fill:#9b9b9b;fill-rule:nonzero;"/><path d="M3909.82,2136.74c2.611,-4.235 6.81,-8.017 12.479,-11.824c4.67,11.431 -1.834,13.136 -12.479,11.824Z" style="fill:#9b9b9b;fill-rule:nonzero;"/><path d="M4149.28,2081.78c-4.134,-0.99 -7.809,-3.632 -11.483,-6.273c2.686,-2.926 5.372,-5.852 9.528,-8.857c1.784,4.44 2.1,8.96 1.955,15.13Z" style="fill:#9b9b9b;fill-rule:nonzero;"/><path d="M5534.56,1858.98c6.584,-1.516 14.28,-2.092 22.956,-1.459c-6.627,1.606 -14.235,2.003 -22.956,1.459Z" style="fill:#939393;fill-rule:nonzero;"/><path d="M4828.75,2410.02c4.493,2.887 8.691,7.451 12.897,13.547c-11.335,3.906 -14.041,-2.231 -12.897,-13.547Z" style="fill:#9b9b9b;fill-rule:nonzero;"/><path d="M4187.08,2443.35c4.494,2.889 8.692,7.456 12.897,13.557c-11.352,3.913 -14.05,-2.233 -12.897,-13.557Z" style="fill:#9b9b9b;fill-rule:nonzero;"/><path d="M4670.78,827.47c-11.927,-3.519 -11.264,-10.502 -1.789,-18.845c1.686,5.504 1.914,11.317 1.789,18.845Z" style="fill:#9b9b9b;fill-rule:nonzero;"/><path d="M4829.92,1897.29c3.999,0.418 7.535,2.39 11.071,4.363c-2.594,2.217 -5.187,4.433 -9.194,6.715c-1.722,-3.13 -2.03,-6.326 -1.877,-11.078Z" style="fill:#9b9b9b;fill-rule:nonzero;"/><path d="M3934.8,1845.14c0.413,-4.007 2.382,-7.566 4.351,-11.124c2.218,2.609 4.436,5.219 6.717,9.249c-3.129,1.722 -6.321,2.023 -11.068,1.875Z" style="fill:#9b9b9b;fill-rule:nonzero;"/><path d="M4627.46,1074.81c3.331,2.14 5.729,4.37 8.128,6.6c-1.945,1.497 -3.891,2.993 -5.836,4.49c-1.582,-2.431 -3.163,-4.862 -4.777,-8.647c-0.032,-1.354 1.553,-2.353 2.485,-2.443Z" style="fill:#9b9b9b;fill-rule:nonzero;"/><path d="M4429.93,1842.97c3.582,-0.403 6.729,0.59 9.875,1.584c-2.286,1.816 -4.573,3.633 -8.177,5.497c-1.589,-1.864 -1.861,-3.774 -1.698,-7.081Z" style="fill:#9b9b9b;fill-rule:nonzero;"/><path d="M3965.89,1769.53c-3.577,0.408 -6.72,-0.583 -9.863,-1.574c2.276,-1.82 4.551,-3.64 8.14,-5.508c1.595,1.863 1.876,3.773 1.723,7.082Z" style="fill:#9b9b9b;fill-rule:nonzero;"/><path d="M4817.66,1876.01c3.061,-0.644 7.17,-0.441 11.543,1.057c-3.322,0.793 -6.909,0.292 -11.543,-1.057Z" style="fill:#a3a3a3;fill-rule:nonzero;"/><path d="M4398.62,1857.92c0.411,2.484 -0.555,4.679 -1.521,6.874c-1.709,-1.354 -3.418,-2.709 -5.275,-5.327c1.708,-1.455 3.564,-1.646 6.796,-1.547Z" style="fill:#9b9b9b;fill-rule:nonzero;"/><path d="M5686.7,2099.79c-1.609,-0.083 -3.714,-1.201 -5.005,-2.977c2.045,0.209 3.277,1.076 5.005,2.977Z" style="fill:#8c8c8c;fill-rule:nonzero;"/><path d="M4425.94,1899.29c1.241,-1.713 3.692,-3.467 6.8,-4.229c-1.424,2.057 -3.507,3.123 -6.8,4.229Z" style="fill:#a3a3a3;fill-rule:nonzero;"/><path d="M5437.8,1861.77c-1.451,-1.543 -1.921,-3.538 -2.39,-5.533c1.627,0.019 3.254,0.037 5.513,0.933c-0.292,1.967 -1.217,3.058 -3.123,4.6Z" style="fill:#939393;fill-rule:nonzero;"/><path d="M4428.22,1854.86c-1.237,1.719 -3.684,3.487 -6.788,4.262c1.42,-2.066 3.499,-3.139 6.788,-4.262Z" style="fill:#a3a3a3;fill-rule:nonzero;"/><path d="M4100,1800c0.572,-2.233 1.145,-4.466 2.649,-7.4c2.135,0.147 3.337,0.996 5.082,2.822c0.544,0.978 0.669,2.822 -0.738,3.718c-3.27,0.884 -5.131,0.872 -6.993,0.86Z" style="fill:#a3a3a3;fill-rule:nonzero;"/><path d="M4066.64,1796.62c1.168,1.837 1.454,4.199 0.785,7.082c-1.192,-1.838 -1.43,-4.197 -0.785,-7.082Z" style="fill:#a3a3a3;fill-rule:nonzero;"/><path d="M4100.79,1842.73c1.924,-0.535 4.7,-0.212 7.668,1.296c-2.143,0.643 -4.48,0.102 -7.668,-1.296Z" style="fill:#a3a3a3;fill-rule:nonzero;"/><path d="M3346.99,2233.98c0.134,-0.826 1.216,-1.289 2.568,-1.069c0.269,0.684 -1.619,1.433 -2.568,1.069Z" style="fill:#a3a3a3;fill-rule:nonzero;"/><path d="M3355.3,2233.94c0.133,-0.835 1.234,-1.303 2.615,-1.081c0.279,0.689 -1.647,1.447 -2.615,1.081Z" style="fill:#a3a3a3;fill-rule:nonzero;"/><path d="M4100.16,1801.24c1.704,-1.232 3.565,-1.22 6.824,-1.18c0.396,2.169 -0.604,4.309 -1.605,6.449c-1.687,-1.342 -3.374,-2.684 -5.219,-5.269Z" style="fill:#9b9b9b;fill-rule:nonzero;"/></svg>