<?xml version="1.0" encoding="UTF-8" standalone="no"?><!DOCTYPE svg PUBLIC "-//W3C//DTD SVG 1.1//EN" "http://www.w3.org/Graphics/SVG/1.1/DTD/svg11.dtd"><svg width="100%" height="100%" viewBox="0 0 41009 26896" version="1.1" xmlns="http://www.w3.org/2000/svg" xmlns:xlink="http://www.w3.org/1999/xlink" xml:space="preserve" xmlns:serif="http://www.serif.com/" style="fill-rule:evenodd;clip-rule:evenodd;stroke-linejoin:round;stroke-miterlimit:2;"><path d="M34344.6,14352.1c190.48,445.642 379.388,884.713 566.813,1324.42c197.525,463.413 393.504,927.488 590.392,1391.17c149.649,352.421 299.841,704.613 449.466,1057.05c196.854,463.687 393.725,927.375 589.908,1391.35c76.225,180.266 141.013,366.146 228.867,540.47c69.354,137.621 -47.387,406 -156.604,457.43c-72.096,33.95 -162.996,38.279 -245.487,38.329c-2178.7,1.283 -4357.42,0.304 -6536.08,-0.409c-60.679,-0.02 -121.358,-1.3 -182.037,-2.066c-185.854,-2.359 -292.73,-124.775 -334.963,-277.109c-26.212,-94.558 12.284,-216.187 47.546,-316.6c58.917,-167.758 137.275,-328.8 209.95,-491.554c31.583,-70.737 64.367,-141.837 105.4,-207.254c79.25,-126.346 203.171,-177.858 346.946,-177.908c1495.88,-0.509 2991.75,-1.746 4487.62,3.537c209.704,0.738 216.958,0.575 133.283,-196.4c-309.937,-729.604 -613.987,-1461.7 -921.521,-2192.33c-210.054,-499.042 -421.929,-997.313 -634.296,-1495.37c-10.045,-23.562 -32.845,-41.687 -49.708,-62.342c-12.883,22.25 -28.337,43.417 -38.267,66.917c-104.25,246.75 -207.095,494.096 -311.337,740.846c-334.879,792.696 -676.404,1582.68 -1000.66,2379.7c-74.766,183.762 -198.904,243.025 -368.275,247.967c-257.295,7.516 -515.208,9.375 -772.308,-0.538c-85.421,-3.292 -178.058,-35.55 -251.792,-80.287c-147.233,-89.342 -181.395,-226.33 -131.05,-412.255c40.3,-148.837 114.638,-288.545 174.959,-431.85c138.358,-328.725 276.2,-657.683 416.562,-985.554c92.721,-216.583 192.159,-430.308 283.754,-647.354c135.446,-320.929 264.884,-644.396 400.117,-965.417c106.346,-252.45 219.567,-502 326.117,-754.366c114.229,-270.554 222.104,-543.8 337.112,-814.013c47.142,-110.771 102.125,-218.641 159.954,-324.325c79.225,-144.787 223.413,-165.525 366.746,-168.196c274.742,-5.116 549.871,-7.533 824.442,1.255c254.912,8.162 330.667,41.375 445.346,315.266c130.041,310.592 263.546,619.729 395.358,929.575c15.767,37.063 30.392,74.609 47.763,118.217l-0.034,-0Z" style="fill:#0b06c1;fill-rule:nonzero;"/><path d="M6267.38,12993.7c471.533,-0.433 934.613,-9.775 1397.15,1.954c290.304,7.363 585.934,11.671 865.758,99.855c276.813,87.233 550.859,187.704 816.367,304.529c136.604,60.104 248.046,174.975 377.896,253.45c182.488,110.283 335.638,252.717 474.229,410.925c121.254,138.421 239.754,280.454 346.142,430.35c95.904,135.125 181.992,278.871 257.221,426.554c75.312,147.846 146.804,300.904 193.1,459.521c71.612,245.333 137.375,494.871 174.008,747.212c35.9,247.284 42.675,500.304 42.754,750.817c0.067,204.092 -14.858,410.479 -48.279,611.675c-36.679,220.813 -83.808,443.496 -159.887,653.213c-88.384,243.629 -202.955,476.775 -334.28,704.72c-241.17,418.617 -576.895,746.746 -938.525,1048.21c-175.191,146.041 -390.77,256.441 -604.862,339.895c-290.504,113.234 -593.846,199.317 -898.05,269.421c-180.588,41.617 -373.383,40.192 -560.742,40.771c-902.721,2.783 -1805.46,-1.054 -2708.19,-0.433c-110.2,0.075 -212.225,2.708 -314.555,-63.375c-121.775,-78.634 -168.887,-192.746 -175.787,-317.467c-13.246,-239.45 -10.496,-480.267 -3.467,-720.192c4.575,-156.375 158.696,-349.8 343.017,-347.487c352.9,4.425 705.921,-1.692 1058.89,-1.967c596.062,-0.462 1192.23,6.438 1788.13,-3.104c197.529,-3.162 399.775,-27.1 590.296,-77.629c279.208,-74.05 520.796,-225.65 732.896,-427.613c171.108,-162.929 313.783,-346.108 436.6,-544.795c55.016,-89.013 97.662,-189.755 125.129,-290.825c51.979,-191.267 94.229,-385.642 130.291,-580.617c24.046,-130 54.6,-266.117 39.542,-394.488c-30.079,-256.404 -22.008,-517.2 -101.85,-769.675c-40.908,-129.358 -102.587,-248.462 -143.85,-374.683c-67.504,-206.483 -195.021,-373.9 -332.892,-527.312c-126.975,-141.28 -275.566,-265.105 -438.691,-374.455c-184.45,-123.645 -386.154,-175.795 -591.246,-224.783c-144.725,-34.567 -296.283,-55.55 -444.921,-56.271c-911.425,-4.387 -1822.88,-0.412 -2734.33,-1.958c-92.808,-0.158 -184.333,4.183 -274.233,-54.329c-126.271,-82.184 -174.021,-199.721 -180.463,-333.125c-10.742,-222.313 -7.037,-445.488 -4.287,-668.242c2.62,-211.75 128.437,-406.571 458.908,-401.308c445.362,7.096 890.908,2.587 1345.05,3.062Z" style="fill:#0b06c1;fill-rule:nonzero;"/><path d="M25228.2,18993c0.275,413.591 -2,818.525 1.85,1223.4c2.046,215.512 -151.421,414.404 -407.721,400.5c-256.583,-13.917 -514.458,-2.23 -771.625,-8.025c-155.066,-3.496 -326.933,-178.488 -327.629,-332.288c-4.45,-983.221 -10.496,-1966.48 -3.896,-2949.64c0.734,-108.955 63.225,-226.396 122.834,-324.205c127.345,-208.962 270.195,-408.583 409.383,-610.179c90.992,-131.8 188.687,-258.971 279.846,-390.662c144.341,-208.525 284.604,-419.871 428.65,-628.604c174.591,-252.98 351.791,-504.159 527.02,-756.7c221.038,-318.571 441.371,-637.63 661.717,-956.68c103.933,-150.487 213.225,-297.716 309.158,-453.166c111.005,-179.867 278.675,-215.759 469.284,-214.871c262.979,1.225 526.037,-5.275 788.942,-0.958c253.375,4.162 404.195,144.408 398.175,391.958c-2.046,84.142 -60.93,173.008 -110.705,248.612c-102.758,156.08 -219.995,302.546 -325.591,456.863c-185.05,270.433 -363.925,545.096 -548.871,815.604c-228.838,334.692 -461.275,666.921 -692.071,1000.27c-215.979,311.958 -431.146,624.488 -647.987,935.846c-155.946,223.917 -312.584,447.392 -471.971,668.862c-60.713,84.359 -94.284,167.75 -91.975,278.038c8.354,398.958 3.221,798.2 3.183,1206.02Z" style="fill:#0b06c1;fill-rule:nonzero;"/><path d="M18994.5,12999.8c197.558,30.921 320.704,179.641 321.604,384.333c0.992,225.637 13.329,452.35 -4.346,676.621c-17.529,222.454 -112.525,404.441 -416.112,402.587c-882.417,-5.387 -1764.89,-2.383 -2647.34,-2.395c-755.141,-0.009 -1510.29,0.366 -2265.43,0.579c-274.671,0.079 -427.317,-153.854 -425.946,-427.004c1.05,-208.3 -2.883,-416.646 0.2,-624.905c2.325,-157.2 50.333,-300.495 197.288,-376.67c67.866,-35.18 155.558,-44.434 234.287,-44.53c1628.8,-1.975 3257.62,-1.008 4886.42,-0.05c37.316,0.021 74.629,6.671 119.371,11.434l0.012,-0Z" style="fill:#0b06c1;fill-rule:nonzero;"/><path d="M18003.5,19085.1c297.884,-0.2 587.084,-0.225 876.288,-0.804c172.917,-0.346 329.2,39.762 392.071,220.875c31.187,89.858 35.104,191.583 38.021,288.337c5.22,173.33 3.783,347.055 -1.121,520.438c-7.092,250.85 -126.242,438.004 -416.288,435.792c-1145.18,-8.746 -2290.47,-4.23 -3435.72,-4.271c-491.638,-0.013 -983.28,0.508 -1474.92,1.487c-273.542,0.542 -425.484,-154.833 -422.484,-428.737c2.246,-205.271 -4.337,-410.679 0.171,-615.875c3.434,-156.434 51.9,-300.121 200.396,-375.3c66.104,-33.467 150.5,-42.638 226.617,-42.729c1336.09,-1.609 2672.19,-0.105 4016.96,0.787Z" style="fill:#0b06c1;fill-rule:nonzero;"/><path d="M18735.3,16124.9c103.725,106.079 136.845,228.567 132.175,368.725c-6.254,187.75 -4.834,375.821 -3.671,563.733c0.975,157.95 -39.971,302.6 -175.279,390.071c-64.463,41.675 -157.705,53.163 -238.059,53.658c-650.725,4.013 -1301.48,2.084 -1952.23,2.13c-838.742,0.054 -1677.48,0.154 -2516.22,0.471c-271.708,0.104 -425.679,-157.192 -423.708,-429.696c1.504,-208.167 0.35,-416.375 -1.988,-624.538c-2.929,-260.437 165.363,-426.983 434.025,-426.896c974.675,0.317 1949.35,0.638 2924.03,0.775c506.142,0.071 1012.38,-5.421 1518.33,4.03c99.904,1.866 198.746,60.558 302.596,97.537Z" style="fill:#0b06c1;fill-rule:nonzero;"/><path d="M22556,13294.4c208.492,298.225 413.263,591.454 617.371,885.146c189.221,272.274 377.167,545.445 566.817,817.429c90.142,129.271 135.617,393.712 -17.8,524.221c-80.142,68.17 -170.788,118.058 -280.15,118.333c-297.767,0.754 -595.671,5.537 -893.246,-2.092c-118.771,-3.046 -229.704,-44.021 -305.492,-151.716c-283.9,-403.434 -570.616,-804.888 -855.666,-1207.52c-154.909,-218.813 -305.934,-440.425 -463.704,-657.146c-111.655,-153.379 -102.605,-316.742 -33.284,-473.942c34.079,-77.262 113.429,-140.933 212.45,-143.075c343.438,-7.42 686.95,-11.229 1030.4,-18.037c174.95,-3.467 280.834,100.467 370.813,231.342c16.325,23.745 31.679,48.154 51.487,77.054Z" style="fill:#0b06c1;fill-rule:nonzero;"/><path d="M16284.3,8901.21c-7.567,0.93 -15.138,1.859 -28.529,-4.462c-28.805,-24.908 -51.78,-42.567 -74.821,-67.413c-0.017,-31.146 0.029,-55.108 6.646,-80.629c24.949,-52.187 70.749,-108.033 -19.405,-137.996c-1.546,-254.133 -2.916,-508.266 -4.733,-762.396c-0.621,-86.65 0.646,-173.47 -4.558,-259.875c-4.079,-67.833 20.371,-96.429 89.121,-89.383c36.537,3.746 73.77,0.667 120.2,0.667c-0,-99.842 3.516,-191.25 -1.188,-282.229c-3.371,-65.246 19.867,-86.067 84.3,-83.559c124.067,4.829 248.404,2.555 380.913,11.009c20.479,18.958 32.675,30.137 44.875,41.312c11,-15.304 22,-30.612 33,-45.921c196.945,-27.383 202.008,-22.9 191.858,169.984c-0.913,17.312 -1.975,34.616 -11.121,60.254c-56.037,52.946 -55.875,85.129 -6.871,134.612c7.688,10.771 14.717,16.363 21.746,21.954c4.171,-8.916 8.338,-17.833 12.55,-30.604c0.046,-3.85 -0.475,-11.533 -0.475,-11.533c35.504,-0.729 71.013,-1.454 114.067,5.563c25.296,31.441 43.033,55.137 60.775,78.833c-0.896,341.8 -1.796,683.604 -10.471,1033.68c-18.971,20.475 -30.163,32.667 -41.354,44.859c15.308,11.004 30.621,22.012 45.929,33.016c20.904,17.325 41.462,48.792 62.771,49.304c62.616,1.505 125.683,-7.983 188.279,-15.616c62.675,-7.646 85.967,13.416 85.396,80.65c-3.475,407.696 -2.675,815.425 -10.584,1231.33c-14.858,18.2 -30.166,35.762 -28.85,37.112c19.888,20.404 40.25,41.963 64.905,54.788c5.191,2.704 28.008,-28.479 42.704,-44.046c147.121,-1.558 294.358,-7.15 441.312,-2.967c73.738,2.096 99.175,-15.321 98.683,-94.746c-4.383,-710.191 -4.75,-1420.42 -4.208,-2130.63c0.033,-40.354 -31.75,-108.004 64.517,-99.391c15.308,11.945 22.429,17.591 29.55,23.233c4.025,-9.146 8.05,-18.292 12.071,-27.438c24.07,-0.737 48.141,-1.47 82.129,2.871c20.112,-2.287 30.308,-9.654 40.504,-17.021c0.229,-3.345 0.462,-6.695 7.679,-15.045c16.513,-12.575 26.042,-20.146 35.567,-27.713c-13.109,-4.142 -26.221,-8.279 -39.329,-12.417c-1.542,-213.079 -4.167,-426.154 -4.392,-639.233c-0.4,-377.412 0.662,-754.829 8.7,-1140.45c25.246,-35.408 42.908,-62.608 60.571,-89.813c25.275,-3.762 50.55,-7.524 86.729,-12.908c-0,-32.575 0.017,-63.5 -0,-94.421c-0.217,-370.266 1.792,-740.558 -2.333,-1110.78c-0.934,-83.921 25.483,-119.867 108.641,-106.45c85.804,13.838 105.134,-23.925 103.946,-105.5c-4.367,-300.758 -1.025,-601.633 7.075,-910.621c46.613,-8.016 85.579,-7.879 124.542,-7.741c1.546,308.004 5.604,616.033 2.883,924.004c-0.683,77.5 17.533,110.183 99.788,101.666c65.491,-6.779 132.304,-0.8 206.691,6.38c14.75,16.991 21.338,27.12 27.929,37.25c8.105,-6.238 16.213,-12.471 24.317,-18.709c-9.996,-9.291 -19.987,-18.583 -29.979,-27.871c0.775,-336.737 1.571,-673.475 2.308,-1010.21c0.075,-34.542 2.509,-69.346 -0.858,-103.563c-5.967,-60.6 35.462,-89.641 79.95,-93.095c47.929,-3.717 97.85,16.954 88.637,91.537c-40.358,41.358 -43.12,70.454 5.105,92.263c-0.025,29.812 -0.05,59.625 -8.05,98.804c-13.584,21.666 -24.034,33.95 -24.08,46.275c-0.991,257.904 -1.404,515.821 0.417,773.716c0.129,17.888 18.538,35.65 28.442,53.467c1.1,8.008 2.196,16.021 -1.113,33.646c16.459,27.758 37.321,45.9 58.188,64.042c5.891,-13.934 11.779,-27.867 17.671,-41.805c12.929,-0.97 25.858,-1.937 45.958,4.25c28.25,25.334 49.321,43.509 70.396,61.68c1.041,29.679 2.083,59.358 -4.263,97.745c-74.383,54.625 -23.033,115.217 -23.791,167.467c-3.921,270.625 -2.588,541.342 -0.975,812.013c0.233,39.412 5.854,81.137 20.304,117.258c8.958,22.379 40.925,52.967 59.771,51.133c118.12,-11.483 235.45,-31.05 353.041,-47.941c11.688,27.125 29.3,53.35 33.579,81.6c5.475,36.104 0.2,73.841 -8.45,120.75c-13.695,39.625 -24.27,69.362 -24.337,99.116c-1.038,473.879 -0.729,947.759 -0.729,1421.64c-0,219.762 -0,219.762 220.266,221.721c1.23,69.762 2.459,139.525 -4.304,219.258c-13.658,31.033 -24.1,52.058 -24.291,73.179c-5.775,634.4 -11.18,1268.81 -12.867,1903.23c-0.058,22.838 -11.692,96.438 62.783,64.196c8.084,-0.483 16.163,-0.971 32.242,6.363c31.992,13.508 55.879,23.604 80,24.204c190.421,4.754 380.887,8.808 571.346,9.125c15.408,0.025 30.862,-29.35 46.296,-45.067c106.466,-78.712 211.754,-159.125 320.345,-234.796c23.4,-16.304 58.621,-21.108 88.571,-21.65c170.238,-3.071 340.529,-3.512 510.804,-4.246c56.425,-0.245 115.855,-13.108 157.021,46.275c7.579,10.938 49.304,14.946 52.809,8.975c13.141,-22.408 23.35,-50.275 23.337,-76.091c-0.112,-375.184 -2.404,-750.367 -3.454,-1125.55c-0.663,-236.317 -0.125,-472.638 -0.125,-722.742c48.708,-0 93.571,-0 146.092,8.496c13.558,54.312 19.462,100.129 25.366,145.946l0,2208.18c-98.196,-92.542 -189.121,-183.404 -286.371,-266.9c-31.32,-26.888 -78.691,-46.467 -119.762,-48.513c-129.663,-6.475 -260.021,1.159 -389.708,-5.016c-79.871,-3.805 -143.246,16.912 -205.688,67.116c-80.304,64.567 -168.954,118.754 -260.358,169.696c-24.059,-19.275 -41.196,-38.033 -59.713,-39.504c-9.966,-0.792 -22.283,28.054 -33.541,43.529c-266.48,2.542 -532.959,5.079 -807.559,0.117c-25.608,-26.525 -43.1,-45.542 -60.587,-64.559c0.737,-689.02 1.475,-1378.04 9.771,-2075.28c18.366,-17.458 29.17,-26.691 39.979,-35.929c-14.734,-8.221 -29.467,-16.437 -44.2,-24.658c-1.496,-19.271 -2.988,-38.546 -5.242,-70.488c-17.875,-13.516 -34.996,-14.362 -52.112,-15.208c-185.021,5.829 -157.696,18.525 -156.905,-158.821c2.121,-477.192 0.992,-954.4 1.288,-1431.6c0.046,-66.508 0.85,-133.012 9.258,-207.842c19.175,-26.408 37.563,-44.066 38.684,-62.758c0.583,-9.846 -28.984,-21.492 -44.938,-32.325c-108.075,-5.6 -216.287,-17.179 -324.179,-14.737c-74.767,1.687 -100.238,-17.159 -97.838,-95.771c10.375,-339.471 14.559,-679.129 28.534,-1026.92c21.254,-31.867 34.971,-55.521 48.683,-79.175c-20.412,-10.579 -40.829,-21.159 -61.246,-31.738c-216.875,-0.366 -433.796,1.475 -650.608,-2.471c-63.842,-1.162 -76.821,23.384 -76.583,80.934c1.529,367.246 0.104,734.504 -7.988,1109.91c-31.054,35.442 -54.475,62.734 -77.9,90.021c-61.358,3.625 -52.004,48.817 -52.004,88.492c-0.008,467.462 0.029,934.925 -0.079,1402.39c-0.013,54.813 -0.838,109.625 -9.067,172.721c-18.967,20.458 -30.158,32.642 -41.346,44.821c15.279,11.021 30.559,22.042 45.842,33.058c1.875,14.292 4.467,28.525 5.529,42.875c12.513,169.584 12.45,169.588 -168.667,162.738c-20.879,2.266 -31.091,9.575 -41.308,16.883c0.45,755.008 0.15,1510.02 2.671,2265.03c0.217,65.233 -19.158,84.821 -83.754,83.025c-279.659,-7.783 -559.446,-11.192 -847.304,-23.683c-25.605,-26.534 -43.096,-45.563 -60.584,-64.596c0.279,-389.392 -1.587,-778.804 2.629,-1168.16c0.855,-79.163 -19.983,-110.946 -100.762,-100.467c-48.35,6.271 -98.221,0.212 -146.829,5.25c-67.1,6.958 -90.263,-16.013 -89.213,-86.346c5.042,-337.45 4.854,-674.975 14.617,-1020.83c61.321,-56.613 57.092,-86.629 -6.713,-113.45c0,-0 -1.708,0.516 -2.545,-5.309c-12.4,-7.175 -23.967,-8.52 -35.534,-9.866c-172.246,7 -139.421,6.662 -136.429,-151.159c3.767,-19.895 2.575,-29.737 1.379,-39.579c-10.341,-175.066 -10.379,-177.171 -187.446,-174.091c-77.316,1.345 -154.454,13.32 -240.166,27.287c-17.979,14.404 -27.459,21.988 -36.942,29.571c13.096,4.129 26.192,8.258 39.283,12.383c2.738,79.904 4.355,159.871 8.592,239.696c2.938,55.375 -18.333,81.108 -82.921,63.288c-16.825,-18.367 -26.066,-29.242 -35.308,-40.113c-8.204,14.825 -16.408,29.654 -24.613,44.479c-6.837,1.846 -13.67,3.696 -32.804,5.484c-25.866,16.662 -39.437,33.379 -53.004,50.1c15.467,12.125 30.938,24.25 46.404,36.379c1.104,353.216 2.204,706.429 -4.491,1067.69c-25.305,23.809 -42.8,39.567 -60.3,55.325Z" style="fill:#939393;fill-rule:nonzero;"/><path d="M24566.2,8752.42c174.813,-21.579 174.704,-21.579 173.679,148.458c-0.504,83.729 4.296,167.838 -2.179,251.088c-5.629,72.333 23.571,89.545 89.408,85.512c80.554,-4.937 161.909,-5.604 242.388,-0.204c68.379,4.587 88.529,-17.842 88.054,-87.083c-3.058,-447.53 -1.658,-895.088 -1.721,-1342.63c-0.004,-19.958 0,-39.916 0,-77.733c232.546,-47.567 465.138,-95.142 705.071,-133.642c7.513,70.713 7.679,132.346 7.846,193.979c-151.409,32.625 -302.517,66.78 -454.375,97.163c-64.967,13 -86.367,44.329 -85.788,112.346c3.584,421.771 2.046,843.587 2.446,1265.39c0.113,123.471 0.488,122.571 -125.462,119.171c-150.009,-4.046 -300.063,-6.354 -463.284,-14.771c-67.446,-7.541 -121.708,-9.725 -175.975,-11.912c-0.354,-138.275 -0.712,-276.55 -0.879,-430.834c0.379,-68.77 0.575,-121.533 0.771,-174.291Z" style="fill:#757575;fill-rule:nonzero;"/><path d="M22351.9,7969.71c-13.462,-44.896 -19.367,-90.712 -25.225,-143.375c42.696,-10.441 85.342,-14.033 137.267,-18.408l-0,-199.9c14.071,-10.204 18.346,-15.904 23.2,-16.446c134.504,-15.037 134.683,-14.95 134.45,-156.341c-0.134,-80.992 -1.042,-161.984 -1.363,-242.975c-0.242,-60.475 20.521,-122.038 83.767,-118.68c33.633,1.784 85.879,60.659 91.754,99.505c16.263,107.529 17.679,218.204 14.95,327.383c-1.763,70.4 21.9,89.904 89.55,87.512c184.708,-6.537 152.158,22.121 154.821,-157.616c1.283,-86.754 -1.929,-173.567 -1.35,-260.342c0.354,-53.304 14.317,-103.171 79.379,-102.187c63.804,0.966 78.971,52.437 80.054,103.912c2.133,101.192 -0.475,202.483 -1.029,303.733c-0.167,30.825 -0.029,61.655 -0.029,94.109c27.275,-0 41.421,0.5 55.512,-0.079c146.309,-6.009 149.338,-6.121 152.271,139.766c1.267,62.896 30.821,70.642 81.792,67.642c53.875,-3.171 108.104,-0.413 158.096,7.412c-65.625,7.988 -126.675,13.634 -107.655,99.546c60.525,273.379 38.838,550.592 38.505,826.509c-0.042,30.579 -43.409,61.108 -66.68,91.662l0,-863.571c-63.687,0 -125.929,-4.154 -187.37,1.083c-72.092,6.146 -98.634,-20.52 -92.163,-92.504c4.342,-48.262 18.95,-112.766 -80.95,-106.312c-43.267,-3.704 -75.333,-1.304 -107.4,1.096c-122.217,0.604 -244.437,1.212 -377.412,-2.725c-17.538,-4.621 -24.317,-4.696 -31.096,-4.775c1.954,8.312 3.912,16.625 5.867,24.937c0.62,58.746 1.237,117.492 -7.655,184.033c-66.233,13.038 -122.962,18.275 -179.687,23.513c-35.538,0.654 -71.079,1.308 -114.171,2.883Z" style="fill:#8c8c8c;fill-rule:nonzero;"/><path d="M27448.9,8900.67c-112.146,2.237 -224.292,4.804 -336.446,6.596c-66.063,1.054 -51.9,-49.292 -51.779,-86.646c0.958,-305.638 3.154,-611.271 4.925,-916.904c0.179,-31.284 0.029,-62.567 0.029,-110.13c-178.388,0 -350.054,0 -529.75,-8.279c-54.054,-69.883 -33.542,-131.379 -7.725,-192.866c221.854,-2.292 443.716,-4.175 665.562,-7.121c64.088,-0.854 65.175,40.9 65.063,87.441c-0.75,320.084 -0.809,640.163 -1.088,960.246c-0.021,28.338 0,56.671 0,99.759c57.534,-0 108.159,-0 166.454,9.808c13.367,59.233 19.059,108.667 24.755,158.096Z" style="fill:#565656;fill-rule:nonzero;"/><path d="M23522.7,8809.75c24.541,-38.258 67.908,-68.787 67.95,-99.367c0.333,-275.916 22.02,-553.129 -38.505,-826.508c-19.02,-85.912 42.03,-91.558 111.259,-93.946c7.696,-2.05 7.646,-1.137 5.05,6.909c1.646,50.854 5.887,93.666 10.129,136.475c0.254,261.458 0.508,522.912 -3.717,795.266c4.292,15.55 13.063,20.209 21.834,24.867c284.483,-1.2 568.966,-2.4 861.525,-2.313c7.875,54.046 7.679,106.809 6.966,167.646c-311.829,7.067 -623.171,3.096 -934.421,6.984c-84.604,1.058 -127.712,-16.525 -108.07,-116.013Z" style="fill:#808080;fill-rule:nonzero;"/><path d="M16181,8750.25c-0.046,23.958 -0.092,47.921 -0.229,85.704c-0.421,31.396 -0.759,48.975 -1.092,66.55c-3.038,71.109 -6.546,142.204 -8.617,213.342c-0.321,10.954 7.246,21.9 9.029,33.187c22.729,143.925 10.225,158.421 -134.271,158.075c-262.779,-0.625 -525.558,-1.12 -795.033,-10.208c-7.579,-59.162 -8.462,-109.787 -9.346,-160.412c219.646,-1.871 439.354,-7.538 658.9,-3.684c83.68,1.467 114.367,-22.916 106.896,-107.279c-6.604,-74.633 2.642,-150.592 -2.504,-225.454c-5.087,-73.988 10.608,-118.413 97.125,-104.113c16,2.646 33.725,-5.162 61.563,-7.025c13.133,21.184 15.354,41.25 17.579,61.317Z" style="fill:#a3a3a3;fill-rule:nonzero;"/><path d="M27456.8,8902.38c-13.604,-51.137 -19.296,-100.571 -25.108,-157.046c86.871,-8.591 173.858,-10.141 273.796,-6.137c61.554,2.225 110.167,-1.1 158.775,-4.429c262.812,-1.85 525.621,-3.713 788.433,-5.546c57.313,-0.4 117.7,18.308 109.142,79.696c-5.142,36.879 -63.658,68.791 -102.417,97.145c-13.2,9.659 -39.325,1.75 -59.546,1.688c-378.387,-1.204 -756.779,-2.438 -1143.08,-5.371Z" style="fill:#333437;fill-rule:nonzero;"/><path d="M26520.3,7590.08c-17.945,63.829 -38.458,125.325 7.725,193.167c-214.362,7.592 -428.875,8.942 -651.32,8.587c-8.101,-63.337 -8.267,-124.97 -8.18,-193.304c214.809,-8.066 429.355,-9.429 651.775,-8.45Z" style="fill:#606060;fill-rule:nonzero;"/><path d="M13263.1,9302.38c-196.529,1.125 -393.062,2.246 -597.858,-5.737c-13.058,-55 -17.846,-100.896 -22.633,-146.796c26.012,-6.184 52.008,-17.625 78.046,-17.717c204.029,-0.721 408.07,0.738 615.258,6.45c-4.875,52.808 -12.9,100.692 -26.667,148.696c-19.212,5.112 -32.679,10.108 -46.146,15.104Z" style="fill:#0c0d11;fill-rule:nonzero;"/><path d="M13315,9287.12c8.025,-47.887 16.05,-95.771 28.733,-146.792c190.775,-4.32 376.9,-5.504 571.038,1.625c41.908,125.929 28.296,144.754 -92.946,145.025c-168.942,0.379 -337.883,0.125 -506.825,0.142Z" style="fill:#333437;fill-rule:nonzero;"/><path d="M20290.6,9944.5c-71.446,39.096 -59.812,-34.504 -59.754,-57.342c1.687,-634.416 7.092,-1268.83 12.867,-1903.23c0.191,-21.12 10.633,-42.145 22.645,-65.3c8.13,32.321 11.442,66.725 11.463,101.134c0.312,605.183 0.071,1210.36 0.633,1815.55c0.029,34.113 5.942,68.221 12.146,109.188Z" style="fill:#9b9b9b;fill-rule:nonzero;"/><path d="M15233.6,9135.29c8.792,51.829 9.675,102.454 9.296,159.375c-82.404,7.479 -163.554,8.658 -257.904,4.371c-61.725,-7.438 -110.242,-9.405 -158.05,-17.621c0.233,-48.021 -0.246,-89.792 6.688,-131.942c48.662,-5.196 89.912,-10.008 131.162,-14.821c86.967,-0.187 173.933,-0.375 268.808,0.638Z" style="fill:#808080;fill-rule:nonzero;"/><path d="M13309.2,9287.25c174.683,-0.133 343.625,0.121 512.567,-0.258c121.241,-0.271 134.854,-19.096 100.85,-143.309c104.816,-7.937 209.75,-9.27 322.583,-2.125c7.888,58.613 7.871,108.746 7.858,158.879c-81.454,2.063 -162.908,4.125 -253.662,3.221c-13.883,-1.02 -18.471,0.93 -23.058,2.879c-3.134,0.105 -6.263,0.2 -15.213,-2.637c-10.329,-1.013 -14.837,0.921 -19.35,2.85c-221.108,0.558 -442.217,1.112 -671.021,-1.363c5.767,-8.029 19.234,-13.025 38.446,-18.137Z" style="fill:#565656;fill-rule:nonzero;"/><path d="M20270.9,7685.46c-218.796,4.121 -218.796,4.121 -218.796,-215.641c0,-473.884 -0.308,-947.763 0.729,-1421.64c0.067,-29.754 10.642,-59.492 22.688,-91.317c8.112,153.425 11.075,308.925 11.379,464.425c0.737,380.529 0.242,761.059 0.242,1141.59l-0,91.183c67.275,9.346 124.783,17.338 183.758,31.404Z" style="fill:#9b9b9b;fill-rule:nonzero;"/><path d="M20046.5,5742.75c-112.071,20.846 -229.4,40.413 -347.521,51.896c-18.846,1.833 -50.812,-28.754 -59.771,-51.133c-14.45,-36.121 -20.07,-77.846 -20.304,-117.259c-1.612,-270.671 -2.946,-541.387 0.975,-812.012c0.759,-52.25 -50.591,-112.842 22.171,-160.192c7.529,321.721 9.446,644.879 10.963,968.033c0.579,124.079 0.175,125.029 120.929,123.842c89.029,-0.879 178.025,-4.65 272.558,-3.175Z" style="fill:#9b9b9b;fill-rule:nonzero;"/><path d="M14826.2,9149.88c0.479,41.767 0.958,83.538 -7.325,131.85c-90.113,12.112 -171.459,17.679 -252.804,23.25c-24.546,0.112 -49.092,0.229 -80.563,-9.083c-12.754,-59.317 -18.579,-109.213 -24.404,-159.104c18.683,-1.876 37.371,-3.746 68.471,-0.238c107.154,8.033 201.887,10.679 296.625,13.325Z" style="fill:#757575;fill-rule:nonzero;"/><path d="M14453.3,9135.04c13.621,51.608 19.446,101.504 25.204,158.491c-69.979,8.521 -139.892,9.946 -217.6,9.129c-7.779,-52.375 -7.763,-102.508 -7.775,-159.087c64.104,-7.713 128.237,-8.983 200.171,-8.533Z" style="fill:#606060;fill-rule:nonzero;"/><path d="M21015.5,9946.42c-7.362,15.291 -22.817,44.671 -38.225,44.641c-190.458,-0.316 -380.925,-4.37 -571.346,-9.125c-24.121,-0.6 -48.008,-10.695 -74.079,-22.75c223.813,-8.354 449.696,-10.345 683.65,-12.766Z" style="fill:#9b9b9b;fill-rule:nonzero;"/><path d="M14833.6,9149.5c-102.15,-2.262 -196.883,-4.908 -296.95,-12.346c135.488,-6.979 276.305,-9.171 422.617,-6.916c-35.754,9.254 -77.004,14.066 -125.667,19.262Z" style="fill:#a3a3a3;fill-rule:nonzero;"/><path d="M14571.8,9309.04c75.567,-9.629 156.913,-15.196 246.313,-21.059c56.571,1.675 105.087,3.642 158.729,10.184c-129.671,8.029 -264.467,11.479 -405.042,10.875Z" style="fill:#a3a3a3;fill-rule:nonzero;"/><path d="M18955.2,3448c-40.892,7.146 -79.858,7.009 -124.808,7.079c-7.275,-24.787 -8.563,-49.779 -10.371,-84.912c58.771,13.946 143.529,-54.467 135.179,77.833Z" style="fill:#9b9b9b;fill-rule:nonzero;"/><path d="M18704.6,5951.79c16.304,-29.188 39.725,-56.48 69.121,-83.971c20.362,57.746 12.375,98.025 -69.121,83.971Z" style="fill:#9b9b9b;fill-rule:nonzero;"/><path d="M17685,10072.5c-8.304,17.496 -31.121,48.679 -36.313,45.975c-24.654,-12.825 -45.016,-34.384 -64.904,-54.788c-1.316,-1.35 13.992,-18.912 27.217,-29.154c26.3,11.863 46.954,23.95 74,37.967Z" style="fill:#9b9b9b;fill-rule:nonzero;"/><path d="M22471.4,7970.96c51.396,-9.4 108.125,-14.637 172.254,-19.979c-50.708,7.979 -108.816,16.059 -172.254,19.979Z" style="fill:#939393;fill-rule:nonzero;"/><path d="M24567.3,9364.08c53.3,-4.375 107.563,-2.191 166.863,4.859c-51.942,3.808 -108.921,2.754 -166.863,-4.859Z" style="fill:#8c8c8c;fill-rule:nonzero;"/><path d="M16187.6,8748.71c-8.795,-18.504 -11.016,-38.57 -17.6,-62.733c-4.812,-23.204 -5.266,-42.313 -3.762,-68.342c92.112,23.042 46.312,78.888 21.362,131.075Z" style="fill:#9b9b9b;fill-rule:nonzero;"/><path d="M17083.3,7500c-48.345,-44.3 -48.508,-76.483 5.859,-121.517c8.025,24.092 9.566,48.6 6.204,83.359c-7.292,19.55 -9.679,28.854 -12.063,38.158Z" style="fill:#9b9b9b;fill-rule:nonzero;"/><path d="M19511.2,4678.88c19.737,3.225 40.154,13.804 60.567,24.383c-13.713,23.655 -27.429,47.309 -47.021,71.225c-8.213,-29.245 -10.542,-58.75 -13.546,-95.608Z" style="fill:#9b9b9b;fill-rule:nonzero;"/><path d="M17119.9,7697.17c65.079,19.296 69.308,49.312 9.646,97.975c-7.925,-29.88 -9.421,-60.167 -9.646,-97.975Z" style="fill:#9b9b9b;fill-rule:nonzero;"/><path d="M27858.7,8731.29c-43.02,6.787 -91.633,10.112 -145.095,8.725c43.266,-7.204 91.383,-9.692 145.095,-8.725Z" style="fill:#757575;fill-rule:nonzero;"/><path d="M17295.2,7563.88c-20.25,-18.192 -37.988,-41.887 -55.779,-71.996c63.074,-17.062 72.083,15.592 55.779,71.996Z" style="fill:#9b9b9b;fill-rule:nonzero;"/><path d="M12638.6,9155c8.763,40.737 13.55,86.633 18.746,139.85c-7.304,-40.017 -15.013,-87.354 -18.746,-139.85Z" style="fill:#565656;fill-rule:nonzero;"/><path d="M18518,5801.83c-10.963,29.096 -28.625,56.296 -52.205,83.759c-12.899,-42.817 -23.225,-87.896 52.205,-83.759Z" style="fill:#9b9b9b;fill-rule:nonzero;"/><path d="M23682.8,7928.29c-8.45,-37.813 -12.692,-80.625 -14.238,-131.034c7.946,36.95 13.196,81.492 14.238,131.034Z" style="fill:#8c8c8c;fill-rule:nonzero;"/><path d="M19915.2,5927.08c17.355,3.609 46.921,15.255 46.334,25.1c-1.117,18.692 -19.504,36.35 -37.013,54.809c-7.771,-23.98 -9.246,-48.33 -9.321,-79.909Z" style="fill:#9b9b9b;fill-rule:nonzero;"/><path d="M16351,7771.21c-17.425,-5.154 -32.896,-17.279 -48.363,-29.404c13.567,-16.721 27.138,-33.437 47.688,-49.85c5.529,24.304 4.083,48.292 0.675,79.254Z" style="fill:#9b9b9b;fill-rule:nonzero;"/><path d="M20996.3,10101.1c4.137,-17.408 16.454,-46.254 26.421,-45.462c18.516,1.47 35.649,20.229 53.679,38.166c-24.113,7.325 -48.546,8.275 -80.1,7.296Z" style="fill:#9b9b9b;fill-rule:nonzero;"/><path d="M16186.7,8904c-6.675,-19.05 -6.341,-36.629 -5.854,-60.837c23.129,11.02 46.104,28.679 69.321,52.179c-18.658,7.271 -37.558,8.7 -63.467,8.658Z" style="fill:#9b9b9b;fill-rule:nonzero;"/><path d="M19649.7,4542.75c-22.845,-11.896 -43.916,-30.071 -65.791,-54.004c21.987,12.062 44.779,29.891 65.791,54.004Z" style="fill:#9b9b9b;fill-rule:nonzero;"/><path d="M18642.8,7684.5c-17.217,-4.142 -32.496,-15.162 -47.775,-26.183c11.187,-12.18 22.379,-24.363 39.683,-36.871c7.417,18.504 8.721,37.342 8.092,63.054Z" style="fill:#9b9b9b;fill-rule:nonzero;"/><path d="M16903.2,7138.42c-4.121,17.221 -15.121,32.529 -26.121,47.833c-12.2,-11.175 -24.396,-22.354 -36.929,-39.646c18.5,-7.441 37.333,-8.771 63.05,-8.187Z" style="fill:#9b9b9b;fill-rule:nonzero;"/><path d="M19525.5,4481.38c0.25,15.663 -5.637,29.596 -11.529,43.529c-20.867,-18.142 -41.729,-36.283 -59.079,-58.012c23.829,1.866 44.15,7.312 70.608,14.483Z" style="fill:#9b9b9b;fill-rule:nonzero;"/><path d="M16290.9,8903.08c10.879,-17.646 28.375,-33.404 51.996,-49.266c19.458,47.629 -7.642,54.733 -51.996,49.266Z" style="fill:#9b9b9b;fill-rule:nonzero;"/><path d="M17288.7,8674.08c-17.225,-4.125 -32.538,-15.133 -47.846,-26.137c11.191,-12.192 22.383,-24.383 39.7,-36.904c7.433,18.5 8.75,37.333 8.146,63.041Z" style="fill:#9b9b9b;fill-rule:nonzero;"/><path d="M23060.7,7745.75c27.433,-6.317 59.5,-8.717 95.65,-6.079c-27.613,6.691 -59.313,8.346 -95.65,6.079Z" style="fill:#939393;fill-rule:nonzero;"/><path d="M20119.8,10041.8c18.721,12.029 36.212,31.046 53.737,56.446c-47.229,16.275 -58.504,-9.296 -53.737,-56.446Z" style="fill:#9b9b9b;fill-rule:nonzero;"/><path d="M17446.2,10180.6c18.725,12.038 36.216,31.067 53.737,56.487c-47.3,16.305 -58.542,-9.304 -53.737,-56.487Z" style="fill:#9b9b9b;fill-rule:nonzero;"/><path d="M19461.6,3447.79c-49.695,-14.663 -46.933,-43.759 -7.454,-78.521c7.025,22.933 7.975,47.154 7.454,78.521Z" style="fill:#9b9b9b;fill-rule:nonzero;"/><path d="M20124.7,7905.38c16.662,1.742 31.395,9.958 46.129,18.179c-10.808,9.238 -21.613,18.471 -38.309,27.979c-7.175,-13.041 -8.458,-26.358 -7.82,-46.158Z" style="fill:#9b9b9b;fill-rule:nonzero;"/><path d="M16395,7688.08c1.721,-16.695 9.925,-31.525 18.129,-46.35c9.242,10.871 18.484,21.746 27.988,38.538c-13.038,7.175 -26.338,8.429 -46.117,7.812Z" style="fill:#9b9b9b;fill-rule:nonzero;"/><path d="M19281.1,4478.38c13.88,8.917 23.871,18.208 33.867,27.5c-8.104,6.238 -16.212,12.471 -24.317,18.708c-6.591,-10.129 -13.179,-20.258 -19.904,-36.029c-0.133,-5.641 6.471,-9.804 10.354,-10.179Z" style="fill:#9b9b9b;fill-rule:nonzero;"/><path d="M18458,7679.04c14.925,-1.68 28.037,2.458 41.146,6.6c-9.525,7.566 -19.055,15.137 -34.071,22.904c-6.621,-7.767 -7.754,-15.725 -7.075,-29.504Z" style="fill:#9b9b9b;fill-rule:nonzero;"/><path d="M16524.5,7373.04c-14.905,1.7 -28,-2.43 -41.096,-6.559c9.483,-7.583 18.962,-15.166 33.916,-22.95c6.646,7.763 7.817,15.721 7.18,29.509Z" style="fill:#9b9b9b;fill-rule:nonzero;"/><path d="M20073.6,7816.71c12.754,-2.683 29.875,-1.837 48.096,4.404c-13.842,3.305 -28.787,1.217 -48.096,-4.404Z" style="fill:#a3a3a3;fill-rule:nonzero;"/><path d="M18327.6,7741.33c1.713,10.35 -2.312,19.496 -6.337,28.642c-7.121,-5.642 -14.242,-11.287 -21.979,-22.196c7.116,-6.062 14.85,-6.858 28.316,-6.446Z" style="fill:#9b9b9b;fill-rule:nonzero;"/><path d="M23694.6,8749.12c-6.704,-0.346 -15.475,-5.004 -20.854,-12.404c8.521,0.871 13.654,4.483 20.854,12.404Z" style="fill:#8c8c8c;fill-rule:nonzero;"/><path d="M18441.4,7913.71c5.17,-7.137 15.383,-14.446 28.333,-17.62c-5.933,8.57 -14.612,13.012 -28.333,17.62Z" style="fill:#a3a3a3;fill-rule:nonzero;"/><path d="M22657.5,7757.38c-6.046,-6.429 -8.004,-14.742 -9.958,-23.054c6.779,0.079 13.558,0.154 22.97,3.887c-1.216,8.196 -5.07,12.742 -13.012,19.167Z" style="fill:#939393;fill-rule:nonzero;"/><path d="M18450.9,7728.58c-5.155,7.163 -15.35,14.529 -28.284,17.759c5.917,-8.609 14.58,-13.079 28.284,-17.759Z" style="fill:#a3a3a3;fill-rule:nonzero;"/><path d="M17083.3,7500c2.384,-9.304 4.771,-18.608 11.038,-30.833c8.896,0.612 13.904,4.15 21.175,11.758c2.267,4.075 2.787,11.758 -3.075,15.492c-13.625,3.683 -21.379,3.633 -29.138,3.583Z" style="fill:#a3a3a3;fill-rule:nonzero;"/><path d="M16944.3,7485.92c4.867,7.654 6.059,17.495 3.271,29.508c-4.966,-7.658 -5.958,-17.487 -3.271,-29.508Z" style="fill:#a3a3a3;fill-rule:nonzero;"/><path d="M17086.6,7678.04c8.017,-2.23 19.583,-0.884 31.95,5.4c-8.929,2.679 -18.667,0.425 -31.95,-5.4Z" style="fill:#a3a3a3;fill-rule:nonzero;"/><path d="M13945.8,9308.25c0.558,-3.442 5.066,-5.371 10.7,-4.454c1.12,2.85 -6.746,5.971 -10.7,4.454Z" style="fill:#a3a3a3;fill-rule:nonzero;"/><path d="M13980.4,9308.08c0.554,-3.479 5.141,-5.429 10.896,-4.504c1.162,2.871 -6.863,6.029 -10.896,4.504Z" style="fill:#a3a3a3;fill-rule:nonzero;"/><path d="M17084,7505.17c7.1,-5.134 14.854,-5.084 28.433,-4.917c1.65,9.038 -2.516,17.954 -6.687,26.871c-7.029,-5.592 -14.058,-11.183 -21.746,-21.954Z" style="fill:#9b9b9b;fill-rule:nonzero;"/></svg>